<svg xmlns="http://www.w3.org/2000/svg" viewBox="0 0 2000 16.3">
  <path fill="#0a0a0a"
    d="M1856.3 10.8c-139.9-2.7-285.5 6.8-411.4-.3-81-1-161 10.2-241.5 2.4-83.6-6.3-135.5 1.7-219.8-2-86.6-3.9-205.4 11-292.6 3-122-11.2-200 6.5-273.5 1.4-82.6-5.7-215.8-2.2-319.4-1.4-25.5-1.5-78.7-.2-98.1.1V4c13.5.7 104-.5 148.5 1.6 74 .4 145.7-8 226.7-3.1 79.6 4.9 96.1 1.1 139.6.7 140.5-1.4 44-7.3 211 1.7C819 10 911.6-3 1003 2.1c70.1 4.1 142-3.4 213.5.9 157.4 9.5 132.5-7 251.2.3 104 6.5 166.5-4.2 241.6.1 42 2.4 277.8-.4 290.7.6v10c-10 .3-101.3-2.4-143.7-3.1z" />
</svg>