<svg xmlns="http://www.w3.org/2000/svg" viewBox="0 0 206.5 230.4">
  <path fill="#202020"
    d="M4.5 215.4c-3.8.4-1.7-3.7-1.7-3.7 1.6-5.2 13.3-.4 17.5-2 39.8-.8 79.3-5.9 119-6.2 9.8-.1 20-.5 29.5 1.2 3.8 7.8-9.1 3.7-13.5 4.2-40-.6-79.8 3.6-119.6 6-10.4.3-20.8.3-31.2.5zm115.5-14c-.1-1.4 1.7 0 0 0zm-117.6-15c8.5 2 19.4-.3 28.8.3 36 .2 71.9.4 107.8-2 4.3 1 14.7-3.2 13.5 4.3-1.7 4.3-8.8 1.1-13.4 2.1-20.9.4-41.8 2.1-62.7 2.2a760 760 0 0 0-74 .1c-.2-1.6 1-7.2 0-7zm14.9-14.8c-6.1-1.2-19.5 3.3-15.4-7.2 8.9 1.4 18.3.5 27.4 1 17 .3 33.9-.9 50.8-.5 5.5 4.4-3.2 7-7.2 6-18.5.6-37 .3-55.6.7zm61.2-.9c.4-.3.2.3 0 0zM6.1 150.4c-5 2-7.2-2.5-2.6-5.9 34.1-2.2 69.9.9 104-1.2 10-.6 20.7 0 30-1.6 6 1.3 1.2 9-4 6.8-40.5 2.4-85.5-.5-122.3 1.7-1.6 0-3.5.3-5.1.2zm1.3-22.9c-6.2 1.4-5-1.2-5.9-2.8C-1 116.6 15 123.6 20 121c17.6-1.3 35.4-1.2 53.2-1.2 7.5.8 15.6 0 22.9 1.2 4.3 3.3-2.7 7-6.6 5.4-26.9-.9-53 1.3-80 1.1h-2zM192 105.3c-16-.7-32-1-48-1.4-32.3-1.2-64.6 1.1-96.9-1.2-14.6-.8-30.8-.5-45.4-.5-1-2.5 0-2.2.2-5 6.3-1.7 18.2-.6 26-.9 25.4.6 50.7 3 76 1.8 17.4-.6 34.8 0 52 0 16-1.2 32 1.2 48 0 8 8.6-5.6 7.2-12 7.2zm-67.6-23c-29-2.8-58.4-.6-87.4-4.4-11.2-1.2-24.5-.7-35.4-3-2.3-9 1.5-5.7 8.5-5.3C38 72.6 69 74.8 97 74.5c14-.2 28 3.2 42 .5 4.6-.4 15.4-1.6 11.7-.3 8.5 3.3-4.8 8-9.4 6.3-5.6.3-11.2 1.7-17 1.2zM51.3 52.7c-16 .3-34-1.4-50-2-3.1-10 12-4.7 17.6-5.6 50.1 4.5 100.4-1.3 150.6-.8 4-1.8 12.4 1.7 7 5.7-13.8 1-27.9-.3-41.7.5C107 51.7 79 53 51.3 52.8zm62.6-21.5a1111 1111 0 0 0-94.7-1.4c-6.3-1.3-20 4.7-17.8-5.8 20.4-1.2 41.7-1.8 62.1-.9 16.5.4 33 1.1 49.5 2 5.7-.3 8.3 7.3 1 6zm7.8-23C103 7.5 84.4 7.7 65.8 6c-16.4-.4-32.7 1.6-49 1.7C10.6 8-4.8 9.2 1.5 1c14.1 1.3 28.2.5 42.2-.8 21.2-.7 42.6 2 64 1.4 16.7 1.3 33.5-.6 50 1.7 6.6 3.4-4.4 5.9-8 4.8-9.4-.5-18.7.5-28 .3z" />
</svg>