<svg xmlns="http://www.w3.org/2000/svg" viewBox="0 0 100 100">
  <path fill="blue"
    d="M11.9 97.4c-4.3-1 0-8.3 2.6-4 1.1 2.2-.2 4.6-2.6 4zm24.8 0c-3 .2-4.6-3.8-7.5-3.2-2.8 3.4-6-2.3-2.9-4.1 2.8-2 6.8-.5 8.8 2 3.3 2.7 5.5-3.7 8.3-2 1.7 4-3.3 7.3-6.7 7.3zm23-.1c-5-.5-8.5-7.6-4.9-11.8 3.2-3.4 9.7-2.2 11.5 2.2 1.5 3.4.5 7.4-3 8.7a6 6 0 0 1-3.6.9zm2-4c4.1-1 1.4-6.3-1.8-5.8-5.3-.5-2.3 7.4 1.9 5.8zm27.8 2.2c-1.4-2.5-4.4-4-7-2a6 6 0 0 1-7.3-5c-1-3.9 4.8-3.8 5-.1 3.4 1.2 9.2-2.3 11.1 3.3.4 1.3 0 4.3-1.8 3.8zM10.8 87c-2.5-.7-3.1-3.8-5.3-5-4-2.4.5-6.3 1.8-9 1.7-2.2 4.4-1.9 6 .2 2.1 1.2 4.7 2.7 4.4 5.6-.6 3.3-3.6 5.4-5.5 7.9-.4.3-1 .4-1.4.3zm.6-5.4c3-2.1 2.5-4.8-1-5.7-3 2.3-1.5 4.3 1 5.7zm24 4.2c-3.3-1.3-1.7-5.4-2.7-8-1-3.1.6-8.7 4.5-5.9 2.1 1.7 6.4 2 6.3 5.5-.9 3.4-4 6.5-7.2 8-.3.2-.6.6-1 .4zm.7-5.3c.1 1.6 4.6-3.1 4-3.4-6-3.1-4.2-.9-4 3.4zM91.5 82c-2.4-1.9-6.2-4.8-5.4-8.3 1.4-2.1 2.7-7.7 6-5.8 1.8 2.4 5.3 3.5 5.4 6.8-1.2 2.7-2.7 5.7-5.3 7.3zm.8-5.4c2.6-1.4-1.2-5.7-1.7-2.4-.5.9 1.3 1.9 1.7 2.4zm-40.5 2.2c-4.6-1.4-.6-8.7 2.2-4.1 1.3 1.7 0 4.7-2.2 4.1zm-26.2-1.4c-3.5.3-3.3-4.3-4.5-6.5-.6-3-3-6-1.4-9.2 3.6-.1 4.3 5.7 5.7 8.6.9 2 3.4 6.1.2 7zm49 2.2c-2-1-2.5-4.4 0-5.2 4.4-2.5 4 5.7 0 5.2zm-13.4-6.8c-3.3-.7-5.8-3.8-6.6-7 .4-4.1 4-7 8-6.6 4.4.3 5.4 6.3 4.4 9.8a5.2 5.2 0 0 1-5.8 3.8zm1.5-4.4c4.8-3-3.2-7.8-4-2.4.7 1.5 2.3 2.7 4 2.4zm3.8-6.2c-.2-.7 0 .8 0 0zm8.7 3.2c-4.6-1.1-.2-6 2.7-6 2.4-1.2 9.2-4.5 8.5.5-1.6 2.3-3.8 2.4-6.3 3.7-1.6.7-3 1.8-5 1.8zm10.1-3.2c-.8-.4 1.6-.3 0 0zM45 64.8c-2.7 0-2.1-3.3-2.6-5.3-.4-3-2.2-6.4-.6-9.4 4-1.6 4 4.4 5 7 .2 2.6 3 8.1-1.8 7.7zm-12.4-.5c-3.4-1-2.3-5.7 1-6 3.7.8 2.4 5.8-1 6zm-25.2-2c-4.1-1.8-4.3-7.8-2-11 2.2-3.2-3.2-5.4-1.3-8.6 2.1-1.5 4.7 1.7 5.2 3.8 1.2 3.1 0 6.4-1.3 9.2 1 2 3.6 6.1-.6 6.5zm86-5c-3.4.7-2.7-5 0-5.6 2.7.6 4 6 0 5.7zM71.7 56c-2.2 0-3.5-2-2.5-4.1 2.3-4.5 7 3 2.5 4zm-39.8-3.7c-3.2.4-5.7-2.2-6.5-5.2-1.3-3.1-.4-8.2 3.6-8.4 3.8.4 6.8 4 7 7.9.2 2.5-1.4 5.4-4 5.7zm-.2-4.2c4-2.8-4.8-8-3-2a2.7 2.7 0 0 0 3 2zM53 51.6c-2-1.4-2.7-4.1-4-6.2-2-2-1.3-5.8 1.7-6.3 2.7-2.5 7.1-3.7 7.7 1.3 1 2.3 5.2 5.7 2 7.7-1.8 1.2-3.8 2-5.7 3.2-.5.1-1.1.4-1.7.3zm1.9-5.2c3.6-.5.5-3 0-5-3.4.3-2.6 3.4-.7 5.4.2.3.4-.5.7-.4zm-38.7-.7c-1.7-.6-4-3 1.2-5.7 2.3-1.2 4.7 4.4 2.1 5.5l-1.3.5h-1.1zm68.7-.2c-4-1.8 1-5.6 2.4-7.5 1.1-2.1 5.8-7.3 6.6-3-.7 3.7-4.8 6.2-6.6 9.7-.4 1.2-1.6.5-2.4.8zm-13.5-.8c-2.6-.6-2.6-4.3-4.5-6-1.7-2.1-3.7-6.7.1-7.7 3.5.3 10.5 0 9.7 5.3-1.3 2.9-1.7 7.8-5.3 8.4zm.7-6.7c2-2.9-3.7-2.8-.5-.1l.3.4zm-56.7-4c-4-1-7.3-3.8-11.3-4.9-2.7-.4-.9-5.6 1.6-4.6 3.2 1 6 2.9 9 4.4 2.6.3 4.3 4.7.7 5.1zM34 35.3c-2.5-.6-6-2.5-5.4-5.5 1.4-4 4.4 1 6.6.8 2.4-3.4 7.5-4.5 10.4-1.1 2.4 1.5-.1 5.4-2.2 3-4-3.4-5.6 3.3-9.4 2.8zM56.2 30c-3.5-.7-7.6-4-6.3-8 0-4.4 5.4-5.2 8-2.6 2.9 2 4.7 6.8 1.5 9.4-.7 1-2 1.3-3.2 1.2zm.6-4.1c3.2-2.4-4-6.3-4-2.2.5 1.4 2.6 2.4 4 2.2zm36-.2c-4 .7-4.2-6.3 0-6 2.8.8 2.7 5 0 6zM24 23.6c-2.5-1.3-2.2-4.5.4-5.7 2.9-1.3 4.7 5 1.5 5.2-.6.5-1.1.5-1.9.5zm-11-3.3c-1.8-1-4.6-4-7.1-5.6-1.7-2.8 1.3-4.8 3-6.5 1.6-1.7 4-5.5 6.4-3.4 2.3 2.1 7 4.2 5.3 8-2.9 2-4.2 5.3-7.6 7.5zm.8-5.4c.4-1.2 2.9-2.7 1.9-3.8-2-3.5-4.7-1-5 1.8.8.6 2 2.4 3 2zM75 25a13.2 13.2 0 0 1-2.9-10.7c2.5-2.4 6.7-1.8 9.5-1.4 2.5 2.4 3 6.2 3.2 9.5-1.5 3-7 1.6-9.8 2.6zm2.3-5c3.4.8 4-3.5.8-3.2-2.8-.8-2.2 3-.8 3.2zm-43.9-3.4c-.2-2.2-1.2-4.5.1-6.3 1-4 4.3-6 7.6-3.3 2 2 6 4.3 3.7 7-2.6 3.2-5 2.2-8.8 2.4l-2.6.2zm8.4-4.4c-.8-1.7-4.6-7.3-6 .9-.1.3 6.6.1 6-1zm20.5 4.5c0-3.5-4.2-3.8-5.5-6.3-1.7-1.2-5.6-.8-4.6-3.8 1.7-2.6 6.7-.8 8 1.8.7 3.5 3.2 3.7 6 3.8 2.7 3-3.9 7.2-3.9 4.5zm28.9-8.1c-3.7-.5-7.5-.9-11.2-.6-4.8-.5-1.8-7 2-4.8 3.2 0 5.6.7 8.7 1.2 1.4.2 2.6.2 2.5 1.3-.1 1.6.3 3.4-2 2.9z" />
</svg>