<svg xmlns="http://www.w3.org/2000/svg" viewBox="0 0 100 100">
  <path fill="#eeeeee"
    d="M40 100c-3.3 1.3-8.7 2.1-8 0 4-4.8 14-9.6 17.2-15 3-4.3 11-11.5 14.7-15.5 4.5-4.8 8.3-3.5 11-8 2.7-4.6 11.3-13.3 15.3-17.4 3-3.4 6.8-8.7 9.8-12.1 2.2 2.8 2.2 6 0 8-3.7 4.6-5.3 2.5-8.4 9-4 5.9-11.7 12.5-14.8 18.1-2.3 4.4-6.1 3.8-9.6 7.2-4.7 4.5-11 9.7-15.5 14.4-3.3 2.7-10 8-11.7 11.3ZM0 95c2.3-1.5 7.3-7.2 11-10.9 4.4-3.6 7.3-10.2 11.6-14 3.5-4 14-6.4 16.5-11.3 1.1-2 6.4-10 9.3-12.2 8.6-9 9.4-9.3 15-15.3C76 23.8 78.5 13.6 86 9c4.4-2 5.8-7 9-8.8.8-1 3.9-1 5-.2-1.4 3.5-11.2 11.8-14.2 15.2-2.9 3.2-4.8 7.9-9.1 10.7-3.8 4.3-8.3 6.9-11.2 9.4-4.1 3.8-8.7 8.5-12.2 12.7a46 46 0 0 0-10.4 13.8c-3 4.7-13.5 7.2-17.1 11.3-4 3.3-6.5 9.4-10.5 12.6C11.2 88.5 4.2 96.5 0 100c-1.7-.8-.6-4 0-5Zm5 5c2.1-3.3 11.3-4.8 13-10.1 1.7-5.4 12-9.2 16-14 6.3-7.2 16.1-11.6 19.6-19 2.5-5.3 18.3-17.4 21.1-21.5 2.2-3.2 8-8.2 9.8-12.3.6-3.4 6.8-8 9.7-11.5 2.3-4.2 3.4-2.4 5.8-6.6 1.2 2.3 1.2 3 0 5-2.2 4.5-1.7 1.3-4.6 5.4-3.2 3.8-3.5 5.3-7.2 9.2a214.3 214.3 0 0 0-20.7 25 95.6 95.6 0 0 1-14.7 16 153 153 0 0 0-16 12.9c-5.5 5.8-12.1 5.4-14.8 13-1.3 3.6-9.5 7.3-12 8.5-1.2 1.6-4.3 1.7-5 0zm63 0c-.8-3.4 7.6-6.2 7.8-10.5 4.2-5 7.6-2.4 10.2-8.6 3-3.8 4.7-4.8 8.3-8 3-2.9 2.9-3 5.7-4.9 1.5 1.6 3.3 2 0 6-5 3.5-6.3 5.8-11.2 10.9-3.8 3.9-6 3.5-8.8 8-1.2 2-3.6 5.5-6 7.1ZM0 68c3.2-3 3.6-3.8 7.6-8.4 3.4-3.5 4.7-3.8 8-7.5 3.1-2.5 6.1-5.2 8.4-8.6 5.1-5 6.6-3.7 10.8-9.4 2.6-2.9 7.2-9.4 10.4-11.4 2.4-3.3 8.8-5.6 10.7-9.2C59.5 10.4 65 3.5 68 0c2.6-1.2 4.6-2 6 0a214 214 0 0 1-15.8 16.8c-3 4.7-6.6 5.3-11 8.7-6.7 7.4-12.9 13.8-19.7 21-4.1 5-6.9 4.7-10.8 9.7C12.3 60.3 4.2 69.8 0 74c-1.3-.1-1.5-3.8 0-6Zm0-36c2.2-3.3 4-2 6.8-5.7 2.4-3.3 3-5.7 7.6-8.3 3.7-3.5 7.9-7 12-10.2 2.8-1 3.4-5.9 5.6-7.8 2-1.7 6.6-.7 8 0-2.5 2.6-3.8 2.3-4.8 4a60.8 60.8 0 0 1-15 13.7c-4.7 3-7 6.4-10.2 11.2-3 4.5-6.8 7-10 11.1Zm0-22a9.8 9.8 0 0 1 0-5c1.1-.8 1.6-.6 2.4-2.3C3 1 4 1 5 0c1.5-.4 2.6-.6 5 0-1.4 2-2.6.6-6 4.5C2.5 6.6 1.5 8.8 0 10ZM100 95v5s-6 1-5 0c1.5-1.7 5-5 5-5z" />
</svg>