<?xml version="1.0" encoding="UTF-8" standalone="no"?>
<!-- Created with Inkscape (http://www.inkscape.org/) -->

<svg
   width="120.925mm"
   height="93.738998mm"
   viewBox="0 0 120.925 93.738999"
   version="1.1"
   id="svg5"
   inkscape:version="1.1.2 (0a00cf5339, 2022-02-04)"
   sodipodi:docname="docker.svg"
   xmlns:inkscape="http://www.inkscape.org/namespaces/inkscape"
   xmlns:sodipodi="http://sodipodi.sourceforge.net/DTD/sodipodi-0.dtd"
   xmlns="http://www.w3.org/2000/svg"
   xmlns:svg="http://www.w3.org/2000/svg">
  <sodipodi:namedview
     id="namedview7"
     pagecolor="#505050"
     bordercolor="#ffffff"
     borderopacity="1"
     inkscape:pageshadow="0"
     inkscape:pageopacity="0"
     inkscape:pagecheckerboard="1"
     inkscape:document-units="mm"
     showgrid="false"
     inkscape:zoom="1.0456808"
     inkscape:cx="213.2582"
     inkscape:cy="179.78718"
     inkscape:window-width="1920"
     inkscape:window-height="1012"
     inkscape:window-x="1920"
     inkscape:window-y="0"
     inkscape:window-maximized="1"
     inkscape:current-layer="layer1"
     inkscape:snap-global="false" />
  <defs
     id="defs2" />
  <g
     inkscape:label="Layer 1"
     inkscape:groupmode="layer"
     id="layer1">
    <path
       style="fill:#ffffff;stroke-width:0.0377721"
       d="M 25.017908,87.036503 C 20.621676,83.668335 14.662222,84.078197 10.151585,80.878317 4.5367767,78.686831 4.5748208,72.246621 3.5928375,67.304679 1.2857595,60.499899 3.3888635,53.140932 1.0091638,46.329528 -0.18210196,41.562295 -0.66123668,36.441425 1.5210914,31.892534 4.6017558,24.348555 10.071376,16.909939 18.069089,14.268267 23.892787,15.085682 26.454236,9.7973151 30.096886,6.4990938 34.566173,3.2589667 39.648391,0.69480825 45.251409,0.5345544 52.750333,-0.43069218 60.517298,-0.1496937 67.815161,1.8785915 72.831771,1.591541 78.331619,0.9519616 82.33571,4.7740297 c 4.236737,1.2423246 8.502256,2.460778 12.540333,4.2849946 7.305837,2.2305257 15.033997,4.5907617 20.309707,10.4641147 4.21312,4.360381 7.21542,10.849225 4.97774,16.88322 -1.90036,7.352519 -8.14152,12.403994 -12.48264,18.335875 -4.40378,7.264785 -11.43371,12.342153 -18.980534,15.968582 -5.574167,2.63972 -10.905736,5.92296 -14.882613,10.726939 -15.024622,11.349984 -33.098801,18.069799 -48.799795,5.598748 z"
       id="path4781" />
    <path
       style="fill:#000000;stroke-width:0.0377721"
       d="M 57.78388,15.719357 C 53.326371,15.564334 50.194193,11.516434 52.188515,7.2439357 55.375692,4.2398139 60.495806,4.831136 64.203468,6.538556 c 5.822417,1.4092374 0.651692,5.691339 -1.295933,8.036555 -1.096917,1.675431 -3.473392,0.768741 -5.123655,1.144246 z"
       id="path7989" />
    <path
       style="fill:#0000ff;stroke-width:0.0377721"
       d="m 59.414587,13.915324 c 3.91945,-0.841855 7.130596,-6.9005175 0.845035,-6.8202061 -4.975667,-2.9161643 -9.053889,5.3740321 -3.207442,6.7273621 0.776689,0.186415 1.575496,0.143 2.362407,0.09285 z"
       id="path7991" />
    <path
       style="fill:#000000;stroke-width:0.0377721"
       d="m 40.748659,27.772753 c -6.162167,1.148635 -8.052189,-6.206857 -4.430903,-10.11549 3.542804,-2.147963 10.772518,-2.297391 12.894293,1.997205 0.939434,5.175654 -3.492687,8.92707 -8.46339,8.118285 z"
       id="path7985" />
    <path
       style="fill:#0000ff;stroke-width:0.0377721"
       d="m 42.31006,25.919733 c 5.034563,0.6998 6.408054,-9.320366 0.395728,-7.673035 -4.713838,-2.928208 -8.250395,6.873211 -3.348669,7.377684 0.950606,0.286651 1.961173,0.453247 2.952941,0.295351 z"
       id="path7987" />
    <path
       style="fill:#000000;stroke-width:0.0377721"
       d="m 52.835734,28.023352 c -5.538313,-0.436338 -2.980481,-9.507641 0.75544,-11.059509 4.393053,-1.26164 12.391434,0.289549 9.127593,6.525919 -1.49327,4.038946 -6.145602,4.6741 -9.883033,4.53359 z"
       id="path7981" />
    <path
       style="fill:#0000ff;stroke-width:0.0377721"
       d="m 56.15968,26.153764 c 5.116582,0.391265 6.825383,-9.818764 0.359088,-7.426534 -3.771079,-1.436464 -5.679635,6.239886 -3.059772,7.495964 0.899021,-0.0011 1.807353,0.0421 2.700684,-0.06943 z"
       id="path7983" />
    <path
       style="fill:#000000;stroke-width:0.0377721"
       d="m 63.608618,32.242378 c -0.05831,0.06855 0.05496,0.331165 0,0 z"
       id="path7979" />
    <path
       style="fill:#000000;stroke-width:0.0377721"
       d="m 67.237835,38.540318 c -5.877381,0.921747 -4.323429,-7.884762 -1.922904,-10.76694 3.642539,-1.221304 7.023918,-2.666802 10.958392,-1.243511 5.174357,0.813879 2.212895,7.697863 1.022353,10.794815 -1.874525,2.650282 -7.21017,0.476601 -10.057841,1.215636 z"
       id="path7973" />
    <path
       style="fill:#0000ff;stroke-width:0.0377721"
       d="m 74.23363,36.633152 c 3.21427,-1.28463 3.536524,-11.164546 -1.605544,-7.608622 -0.546717,0.05354 -1.451661,1.145535 -1.85683,0.103715 -0.498798,-2.000436 -6.254892,0.704821 -4.811311,4.122943 -1.044893,5.632321 5.09073,2.494515 8.273685,3.381964 z"
       id="path7977" />
    <path
       style="fill:#000000;stroke-width:0.0377721"
       d="m 68.729066,37.628012 c -0.251876,-0.06907 -0.04515,0.06848 0,0 z"
       id="path7975" />
    <path
       style="fill:#000000;stroke-width:0.0377721"
       d="m 24.959924,40.694665 c -4.565766,0.0718 -9.688545,-1.187642 -7.087899,-6.764371 0.116767,-6.03699 7.898362,-5.603974 12.094346,-4.798569 5.037478,2.684186 0.302095,12.509806 -5.006451,11.562976 z"
       id="path7969" />
    <path
       style="fill:#0000ff;stroke-width:0.0377721"
       d="m 25.840001,38.847818 c 3.364386,-0.801151 6.363132,-9.636673 0.194116,-8.373613 -5.08004,-1.107931 -6.712959,3.063812 -6.380522,7.56274 1.973588,0.520385 4.10768,0.87738 6.186406,0.810873 z"
       id="path7971" />
    <path
       style="fill:#000000;stroke-width:0.0377721"
       d="m 53.520953,39.428083 c 0.47591,-0.171462 -0.912927,0.03875 0,0 z"
       id="path7967" />
    <path
       style="fill:#000000;stroke-width:0.0377721"
       d="m 40.956408,74.701851 c -8.216431,-0.387954 -16.888912,-3.051 -22.727354,-9.059922 -2.658231,-4.174016 -7.978097,-7.397445 -7.380792,-12.945609 0.116999,-4.460469 -0.219284,-7.434876 1.841319,-10.671701 4.158258,-1.571619 8.706242,-0.113482 13.044613,-1.053299 2.713644,-0.800866 9.290481,1.380508 5.589676,-2.306834 1.610177,-3.775133 0.82943,-10.91777 6.729764,-10.652533 5.37718,-0.58688 10.529551,3.540797 6.787886,9.010279 -0.871952,3.188749 -10.410002,4.329338 -3.261916,4.422715 1.812122,-0.27991 9.430194,1.420005 5.484197,-1.115162 0.206408,-4.407313 1.083281,-12.66115 7.525732,-10.496005 6.811527,-1.064506 7.915168,6.617125 2.894361,9.853977 -2.45884,0.755758 -10.321014,2.464895 -3.571704,1.703696 8.386051,-0.823529 16.754613,-1.822201 25.193994,-1.960481 3.669317,-0.699601 1.906704,-3.915962 2.181838,-6.537808 0.08163,-5.740686 0.454717,-12.297772 3.750837,-17.414067 4.231589,-3.210306 7.85968,3.678392 9.047152,7.103999 -0.764561,5.750633 6.925989,-0.409079 9.874209,2.322702 2.96609,0.816321 5.44787,2.449162 5.98032,4.228267 -3.79645,5.811607 -7.95852,12.068085 -14.120835,15.486904 -2.415272,1.157014 -4.035505,1.472974 -4.364434,1.216965 -0.70792,0.758965 -2.363325,0.980939 -3.796131,1.193641 -2.984841,0.652974 -4.270081,4.415843 -6.279069,6.611374 -2.734738,4.130042 -5.93953,7.852184 -10.136604,10.585055 -5.869036,4.429971 -12.196858,8.772694 -19.692286,9.667158 -3.495084,0.658128 -7.042423,0.924472 -10.594773,0.806689 z"
       id="path7955" />
    <path
       style="fill:#0000ff;stroke-width:0.0377721"
       d="m 37.103655,39.409239 c 4.472092,0.418125 9.567975,-7.721947 3.884728,-9.112585 -5.81338,-2.894947 -6.137751,4.023364 -6.88621,7.725988 -0.386124,1.053615 2.993114,1.850013 3.001482,1.386597 z"
       id="path7965" />
    <path
       style="fill:#0000ff;stroke-width:0.0377721"
       d="m 50.971405,39.577187 c 3.486,-0.987683 7.526806,-1.191437 7.514103,-6.09029 -2.861189,-2.384804 -8.570102,-3.461998 -8.452735,2.072111 0.157739,1.253611 -1.795813,5.011031 0.938632,4.018179 z"
       id="path7963" />
    <path
       style="fill:#000000;stroke-width:0.0377721"
       d="m 82.580686,51.597925 c -0.104562,-0.07205 -0.01252,0.257011 0,0 z"
       id="path7961" />
    <path
       style="fill:#000000;stroke-width:0.0377721"
       d="m 77.598439,54.952427 c 0.248262,-0.228624 -0.449932,0.06094 0,0 z"
       id="path7959" />
    <path
       style="fill:#0000ff;stroke-width:0.0377721"
       d="m 46.074527,72.409878 c 6.598478,-0.581169 13.247533,-2.257069 18.535182,-6.438351 4.844082,-3.375001 10.039061,-6.691841 13.079998,-11.918741 3.021052,-2.846337 4.879982,-7.504705 8.868665,-8.883373 8.145527,-0.489012 14.127108,-6.929431 18.375298,-13.333518 4.63267,-3.49778 -0.71239,-5.80876 -4.10846,-5.531859 -3.336108,-0.257643 -9.869691,3.866442 -8.966619,-2.4677 -0.547951,-3.649408 -5.804405,-11.237575 -6.686895,-3.409977 -1.984353,5.418925 -1.000331,11.335972 -1.120411,16.885923 -0.826958,5.044401 -6.581385,4.405654 -10.450204,4.453019 -11.216677,0.136174 -22.353713,2.838144 -33.596963,1.405251 -6.679549,-0.82408 -13.405139,-0.739197 -20.090161,-0.129852 -2.635116,-1.810305 -8.219915,2.03156 -6.557874,1.951175 0.25813,4.647988 -1.426086,10.400372 2.632395,13.897096 3.591401,4.65377 7.522332,9.514317 13.423058,11.221003 5.289538,2.107954 11.013039,2.709075 16.662991,2.299904 z"
       id="path7957" />
  </g>
</svg>
