<?xml version="1.0" encoding="UTF-8" standalone="no"?>
<!-- Created with Inkscape (http://www.inkscape.org/) -->

<svg
   width="103.455mm"
   height="105.628mm"
   viewBox="0 0 103.455 105.628"
   version="1.1"
   id="svg5"
   inkscape:version="1.1.2 (0a00cf5339, 2022-02-04)"
   sodipodi:docname="download.svg"
   xmlns:inkscape="http://www.inkscape.org/namespaces/inkscape"
   xmlns:sodipodi="http://sodipodi.sourceforge.net/DTD/sodipodi-0.dtd"
   xmlns="http://www.w3.org/2000/svg"
   xmlns:svg="http://www.w3.org/2000/svg">
  <sodipodi:namedview
     id="namedview7"
     pagecolor="#505050"
     bordercolor="#ffffff"
     borderopacity="1"
     inkscape:pageshadow="0"
     inkscape:pageopacity="0"
     inkscape:pagecheckerboard="1"
     inkscape:document-units="mm"
     showgrid="false"
     inkscape:zoom="0.73940797"
     inkscape:cx="-18.934067"
     inkscape:cy="171.75904"
     inkscape:window-width="1920"
     inkscape:window-height="1012"
     inkscape:window-x="1920"
     inkscape:window-y="0"
     inkscape:window-maximized="1"
     inkscape:current-layer="layer1" />
  <defs
     id="defs2" />
  <g
     inkscape:label="Layer 1"
     inkscape:groupmode="layer"
     id="layer1">
    <path
       style="fill:#ffffff;stroke-width:0.0862084"
       d="M 52.359025,105.56565 C 45.302791,104.35249 38.172345,102.72575 31.953452,99.02509 27.487351,97.14701 22.503849,96.16925 18.897497,92.66306 13.321059,88.39446 7.8872947,83.284272 5.5951527,76.4615 3.3740967,71.824508 0.62442869,67.181531 0.89210769,61.829867 0.12786669,56.741453 -1.0357253,51.449219 1.8408647,46.72346 4.0838427,41.410716 5.3545797,35.682958 8.7714397,30.910928 14.570958,22.115255 22.114523,14.317015 31.232017,8.9541209 c 4.94736,-2.938067 10.999269,-2.382986 16.126907,-4.684783 5.224863,-0.74504 10.28816,-2.171937 15.388927,-3.56834396 6.508918,-1.115174 14.116205,-1.487352 19.236035,3.48300696 3.955886,3.056567 8.569326,5.519859 11.059366,10.0820061 4.8751,5.628714 8.494498,12.408738 9.355718,19.887501 1.15015,8.380766 1.50787,12.577651 0.32467,24.041605 -1.82168,7.75524 -4.204248,15.382838 -6.329138,23.060872 -1.86334,6.371405 -6.16882,12.228225 -12.052185,15.388725 -8.909562,2.76587 -17.375115,6.98366 -26.57385,8.65754 -1.795349,0.0774 -3.616465,0.47885 -5.409472,0.2634 z"
       id="path93" />
    <path
       style="fill:#000000;stroke-width:0.0862084"
       d="m 53.412483,49.3744 c -0.132073,0.16823 0.129688,0.860059 0,0 z"
       id="path32" />
    <path
       style="fill:#000000;stroke-width:0.0862084"
       d="M 40.562444,70.875372 C 37.51009,66.380789 35.247551,61.301029 33.121906,56.36216 c 1.520385,-2.949643 6.327608,-5.045305 8.552395,-1.60011 1.600799,1.666579 3.047307,7.989573 4.349623,7.52155 -2.594384,-5.345106 -0.258694,-11.468591 0.272275,-17.05771 1.34482,-7.687239 1.580612,-11.5061 1.565392,-19.66427 -0.87652,-2.940867 2.328124,-3.580609 4.04598,-4.30166 5.706299,-1.002916 3.318736,6.653611 3.471776,9.98907 -0.312666,8.914206 -2.365425,17.775229 -1.769483,26.69727 1.830715,1.945188 -2.310323,8.978673 1.049973,3.42892 2.867878,-3.857849 4.614895,-9.108846 8.88012,-11.45952 3.853232,-2.062001 6.339761,3.921902 3.469708,6.414083 -4.20319,5.795051 -7.101975,12.629547 -12.336671,17.603494 -9.953691,3.415798 -10.125522,2.653605 -14.11055,-3.057905 z"
       id="path30" />
  </g>
</svg>
