<?xml version="1.0" encoding="UTF-8" standalone="no"?>
<!-- Created with Inkscape (http://www.inkscape.org/) -->

<svg
   width="117.203mm"
   height="92.476997mm"
   viewBox="0 0 117.20301 92.476998"
   version="1.1"
   id="svg5"
   inkscape:version="1.1.2 (0a00cf5339, 2022-02-04)"
   sodipodi:docname="email.svg"
   xmlns:inkscape="http://www.inkscape.org/namespaces/inkscape"
   xmlns:sodipodi="http://sodipodi.sourceforge.net/DTD/sodipodi-0.dtd"
   xmlns="http://www.w3.org/2000/svg"
   xmlns:svg="http://www.w3.org/2000/svg">
  <sodipodi:namedview
     id="namedview7"
     pagecolor="#505050"
     bordercolor="#ffffff"
     borderopacity="1"
     inkscape:pageshadow="0"
     inkscape:pageopacity="0"
     inkscape:pagecheckerboard="1"
     inkscape:document-units="mm"
     showgrid="false"
     inkscape:zoom="1.0456808"
     inkscape:cx="212.78004"
     inkscape:cy="166.39877"
     inkscape:window-width="1553"
     inkscape:window-height="752"
     inkscape:window-x="2218"
     inkscape:window-y="194"
     inkscape:window-maximized="0"
     inkscape:current-layer="layer1" />
  <defs
     id="defs2" />
  <g
     inkscape:label="Layer 1"
     inkscape:groupmode="layer"
     id="layer1">
    <path
       style="fill:#000000;stroke-width:0.0463182"
       d="m 63.413604,91.314076 c -6.41094,0.0686 -12.708313,-1.46086 -19.126986,-1.14387 C 37.192108,89.18834 30.044327,88.525226 22.885162,89.247018 16.459916,89.340678 8.649832,91.539682 3.6214856,86.227762 -1.6277525,82.690336 0.28692015,75.683158 0.58247575,70.418124 3.8966214,50.210449 0.23354435,29.27119 4.316528,10.92236 5.6269543,7.2656743 8.0107763,6.6317745 9.9266888,5.0145952 16.043531,5.1284654 21.960371,3.1292867 28.042806,2.5309749 34.075699,0.27067262 40.544448,1.6209233 46.784581,0.68287896 55.603357,1.0495494 64.489615,2.7774127 73.302552,1.3103865 83.992607,1.1416761 95.210144,-2.0287926 105.52909,2.1492368 c 2.98149,1.9174403 5.25377,3.9040332 7.09636,6.7119567 3.2907,7.2843575 1.98149,15.5752035 3.15146,23.3005205 0.87243,9.731552 1.94544,19.511 1.14294,29.286253 0.31133,2.865107 -0.25816,7.936987 -0.24259,11.904095 0.1114,5.509994 -2.92968,10.341305 -7.26434,13.532463 -13.317033,7.801831 -31.978635,5.499975 -45.999316,4.429551 z"
       id="path26691" />
    <path
       style="fill:#ffffff;stroke-width:0.0463182"
       d="M 81.345344,33.261386 C 90.19029,25.637766 98.422411,17.262362 105.05242,7.6800475 102.61578,3.5822853 96.230528,4.0578232 91.792877,3.9355791 84.758802,4.3129459 77.759248,5.0749623 70.731903,5.4573395 60.649608,6.668118 50.610153,3.5706567 40.522488,4.6707844 31.77443,5.9424961 22.344264,4.9351665 14.23526,8.2901995 c 4.335292,3.9611335 8.650018,7.8298685 13.165057,11.6351395 1.671352,0.442861 6.350797,5.313389 8.616059,6.720273 3.397786,2.775846 7.9815,6.435235 10.532731,8.740161 5.537015,6.167984 11.699521,11.765931 18.20145,16.875618 6.09311,-6.188764 10.152408,-13.278251 16.594787,-19.000005 z"
       id="path152" />
    <path
       style="fill:#000000;stroke-width:0.0463182"
       d="m 88.865516,54.327428 c -0.18089,-0.151107 -0.185705,0.08226 0,0 z"
       id="path150" />
    <path
       style="fill:#ffffff;stroke-width:0.0463182"
       d="m 109.10116,82.149325 c 3.73252,-4.073275 2.51155,-10.280176 2.95974,-15.37945 0.0254,-6.673879 0.69031,-13.323663 0.007,-19.987558 -0.56707,-9.591732 -1.8086,-19.146708 -2.19509,-28.754181 -0.57434,-2.151195 -1.14587,-10.8740811 -3.89626,-5.044658 -6.352981,8.240656 -13.376506,16.036167 -21.692452,22.34455 -2.238945,1.894613 -4.600163,3.347085 -1.341439,5.400088 1.822824,4.629732 4.99734,8.600065 6.079926,13.522637 3.643433,7.365706 8.527356,13.986335 13.564385,20.464257 2.1847,1.511386 4.65744,9.287748 6.51371,7.434315 z"
       id="path148" />
    <path
       style="fill:#000000;stroke-width:0.0463182"
       d="m 7.7622614,44.132486 c 0.1147696,-0.244081 0.1148113,0.244062 0,0 z"
       id="path146" />
    <path
       style="fill:#ffffff;stroke-width:0.0463182"
       d="m 10.499914,84.322416 c 3.919613,-4.411287 7.050845,-9.417432 10.694967,-14.018665 4.129821,-4.204661 7.596656,-9.004204 11.497703,-13.399259 3.682685,-4.145286 6.810385,-8.63508 10.747821,-12.584317 C 50.048582,40.304197 40.211551,35.981169 37.521716,32.622794 29.63905,25.911806 21.682575,19.291142 14.075676,12.258771 11.277042,10.974301 11.625529,9.6719731 8.994799,11.325545 6.5069661,24.485047 7.9827664,38.039191 6.6554917,51.335711 6.409037,59.796916 5.1724725,68.1994 4.9430488,76.65943 c -0.5748016,3.424884 2.7622199,7.295257 5.5568652,7.662986 z"
       id="path144" />
    <path
       style="fill:#ffffff;stroke-width:0.0463182"
       d="M 93.288859,88.043293 C 96.309273,87.562451 104.44128,86.704358 104.09327,84.807311 98.609319,77.571637 92.977808,70.326057 88.261305,62.544001 84.709908,55.625486 80.668861,48.878066 78.269395,41.447717 c -4.573909,4.49387 -7.196798,10.915261 -12.678819,14.461101 -3.147445,1.897903 -5.370049,-2.348879 -8.291263,-4.319167 -3.141403,-1.470818 -6.10587,-8.265903 -9.458347,-7.034681 -1.190392,1.996406 -7.05487,7.8706 -9.735425,11.468583 -3.20405,5.142841 -7.85972,9.157445 -11.385331,14.078806 -4.251445,4.239306 -6.915481,9.692295 -10.989355,14.095328 -1.947735,2.831588 6.108459,0.202059 8.298025,0.792081 7.81684,-0.909448 15.588617,0.332196 23.350887,1.093551 10.578785,0.298471 21.112943,2.084647 31.723188,1.327642 4.734347,0.09167 9.44439,0.991901 14.185904,0.632332 z"
       id="path142" />
  </g>
</svg>
