<?xml version="1.0" encoding="UTF-8" standalone="no"?>
<!-- Created with Inkscape (http://www.inkscape.org/) -->

<svg
   width="100.477mm"
   height="90.050003mm"
   viewBox="0 0 100.477 90.050004"
   version="1.1"
   id="svg5"
   inkscape:version="1.1.2 (0a00cf5339, 2022-02-04)"
   sodipodi:docname="github.svg"
   xmlns:inkscape="http://www.inkscape.org/namespaces/inkscape"
   xmlns:sodipodi="http://sodipodi.sourceforge.net/DTD/sodipodi-0.dtd"
   xmlns="http://www.w3.org/2000/svg"
   xmlns:svg="http://www.w3.org/2000/svg">
  <sodipodi:namedview
     id="namedview7"
     pagecolor="#505050"
     bordercolor="#ffffff"
     borderopacity="1"
     inkscape:pageshadow="0"
     inkscape:pageopacity="0"
     inkscape:pagecheckerboard="1"
     inkscape:document-units="mm"
     showgrid="false"
     inkscape:zoom="1.0456808"
     inkscape:cx="139.1438"
     inkscape:cy="181.69981"
     inkscape:window-width="1553"
     inkscape:window-height="752"
     inkscape:window-x="2169"
     inkscape:window-y="189"
     inkscape:window-maximized="0"
     inkscape:current-layer="layer1"
     inkscape:snap-global="false" />
  <defs
     id="defs2" />
  <g
     inkscape:label="Layer 1"
     inkscape:groupmode="layer"
     id="layer1">
    <path
       style="fill:#000000;stroke-width:0.0442246"
       d="m 34.079983,33.8289 c 0.101992,-0.324334 0.101992,0.324334 0,0 z"
       id="path40" />
    <path
       style="fill:#000000;stroke-width:0.0442246"
       d="m 0.0911079,54.642769 c -0.3824593,-0.795614 0.6013535,0.09216 0,0 z"
       id="path38" />
    <path
       style="fill:#000000;stroke-width:0.0442246"
       d="m 30.497801,22.040818 -0.08298,0.02336 z"
       id="path36" />
    <path
       style="fill:#000000;stroke-width:0.0442246"
       d="m 72.573751,56.180006 c -0.110948,-0.313774 -0.276799,0.370146 0,0 z"
       id="path34" />
    <path
       style="fill:#000000;stroke-width:0.0442246"
       d="m 38.575918,73.752908 -0.0021,0.107901 z"
       id="path32" />
    <path
       style="fill:#000000;stroke-width:0.0442246"
       d="m 34.767646,6.3729133 c 2.386959,-1.136987 1.004291,0.17407 0,0 z"
       id="path30" />
    <path
       style="fill:#000000;stroke-width:0.0442246"
       d="m 68.443349,90.04966 c -8.140465,0.0627 -6.276569,-8.38351 -5.696324,-13.792547 1.944351,-6.528955 0.662056,-12.78179 -2.521975,-18.330497 1.784016,-6.042109 11.510247,-0.645898 14.703308,-6.870046 4.78704,-5.396669 2.099425,-12.912447 -0.3761,-18.689034 -0.695038,-3.492399 4.145634,-11.907821 -2.905687,-10.843717 -4.454866,5.648318 -11.700782,3.662192 -17.749705,3.7969 -3.575127,0.07962 -7.351349,0.02662 -10.580206,-1.774858 -2.647953,-1.477375 -10.976036,-6.936472 -9.000622,1.318108 3.072096,5.888914 -2.041649,10.362723 -3.351825,15.787181 -2.38906,6.297109 2.236007,12.437035 8.436559,13.579098 5.246076,1.804628 0.377636,7.788026 -0.262462,11.605125 -5.648825,5.2148 -11.914947,-2.186049 -16.408444,-5.403202 -3.480772,-0.71405 -4.473844,1.017402 -0.701889,1.69725 5.079389,2.816578 8.276071,9.82238 14.923148,9.107152 2.930767,3.392826 5.164768,12.827308 2.218851,13.529133 -6.100789,1.453431 -11.528718,2.494685 -16.100852,-0.46615 C 15.678565,79.513557 7.2167418,75.025588 3.0056677,66.748027 -0.1740143,59.461171 -0.0748346,51.119683 0.5174898,43.316924 1.9180523,32.938153 5.8343579,22.500971 12.949766,14.669314 25.389139,3.6217713 43.853432,-1.2007631 58.99445,0.2524623 c 6.713993,1.425352 13.623243,2.296012 20.056982,4.750032 10.127957,4.02205 17.950554,13.0761127 20.214201,23.7655677 2.818567,11.112001 0.29385,22.757177 -3.227386,33.397531 -3.422734,8.211345 -7.696919,16.679088 -15.465747,21.589834 -3.399222,4.349694 -8.194699,3.770877 -12.12915,6.294233 z"
       id="path3657" />
    <path
       style="fill:#8933a2;stroke-width:0.0442246;fill-opacity:1"
       d="m 82.842141,76.8844 c 5.202602,-5.950159 6.766695,-13.946431 10.316812,-20.796184 0.06291,-4.734694 3.002825,-10.108194 2.625823,-15.368078 0.01049,-7.502063 -1.59151,-15.100857 -5.916112,-21.346065 C 84.485142,10.382689 74.008647,6.3968933 64.098447,4.9400693 58.075914,3.2538403 52.251379,2.0265523 46.02487,3.6055773 31.643849,5.8567033 14.698553,15.140552 9.9295765,26.883185 4.5667637,38.699456 2.946066,52.84418 7.776544,65.081505 8.4871335,71.096725 36.086933,88.66427 35.165119,78.066924 34.776236,77.031101 34.384608,75.083544 29.651083,73.590644 23.29299,71.585374 20.41265,63.310103 13.230056,63.072481 c -0.227828,-5.786006 8.45288,-6.493543 12.647322,-5.624409 3.411975,2.361868 9.2931,9.851249 11.668363,2.178258 -0.983606,-5.115898 -9.76932,-4.223238 -10.64383,-10.345501 -2.074346,-5.969709 1.345695,-11.89048 3.483111,-17.32125 -0.321232,-5.527838 -1.671657,-17.222269 6.566606,-16.573175 5.331795,2.971067 8.571558,6.052003 13.577155,6.737609 6.984173,0.956606 16.241278,1.55717 20.773935,-3.960746 6.313934,-3.096195 9.799933,3.970464 7.440514,9.145073 0.171926,7.446797 5.756951,14.82654 1.979393,22.201645 -1.866356,7.193005 -16.270878,6.037924 -12.676948,14.460578 -0.267911,8.461528 0.390097,19.500317 -2.248321,21.575929 5.714244,2.431496 13.543099,-5.830155 17.044785,-8.662092 z"
       id="path28" />
  </g>
</svg>
