<?xml version="1.0" encoding="UTF-8" standalone="no"?>
<!-- Created with Inkscape (http://www.inkscape.org/) -->

<svg
   width="95.397003mm"
   height="96.310997mm"
   viewBox="0 0 95.397006 96.310998"
   version="1.1"
   id="svg5"
   inkscape:version="1.1.2 (0a00cf5339, 2022-02-04)"
   sodipodi:docname="linkedin.svg"
   xmlns:inkscape="http://www.inkscape.org/namespaces/inkscape"
   xmlns:sodipodi="http://sodipodi.sourceforge.net/DTD/sodipodi-0.dtd"
   xmlns="http://www.w3.org/2000/svg"
   xmlns:svg="http://www.w3.org/2000/svg">
  <sodipodi:namedview
     id="namedview7"
     pagecolor="#505050"
     bordercolor="#ffffff"
     borderopacity="1"
     inkscape:pageshadow="0"
     inkscape:pageopacity="0"
     inkscape:pagecheckerboard="1"
     inkscape:document-units="mm"
     showgrid="false"
     inkscape:zoom="1.4788159"
     inkscape:cx="178.1831"
     inkscape:cy="206.92231"
     inkscape:window-width="1553"
     inkscape:window-height="752"
     inkscape:window-x="2143"
     inkscape:window-y="165"
     inkscape:window-maximized="0"
     inkscape:current-layer="layer1" />
  <defs
     id="defs2" />
  <g
     inkscape:label="Layer 1"
     inkscape:groupmode="layer"
     id="layer1">
    <path
       style="fill:#0a66c2;stroke-width:0.0483007;fill-opacity:1"
       d="m 30.790321,96.311284 c 7.785251,-0.976124 15.464529,-3.280637 23.392541,-2.556448 7.469126,0.130646 14.938962,0.645333 22.196291,2.373135 4.854422,-0.373929 13.052384,1.234904 14.95978,-4.436471 2.005179,-5.075244 0.860791,-10.593376 1.515831,-15.882843 0.67205,-7.631541 1.347053,-15.256581 1.468925,-22.916808 0.268075,-4.891627 1.23746,-9.743652 1.048901,-14.635195 C 94.409188,31.346953 92.571013,24.474054 93.121379,17.447329 92.466366,12.965061 95.068652,5.6742488 89.606127,3.636991 87.042568,2.2943593 83.300187,2.2663018 82.303127,0.9689788 74.698572,-0.62356371 66.797328,0.25002637 59.053947,0.15329006 52.734936,0.97757699 46.286964,0.3607659 40.082023,2.0060349 34.812751,2.4474186 29.154717,3.4394221 24.176446,1.1565583 19.734447,0.25197375 15.021455,0.25591536 10.684323,1.4245355 6.239344,2.4986917 3.147032,4.8642578 3.4590764,9.7738883 -0.95495764,29.667083 0.3461089,50.156548 0.50309622,70.360235 c -0.79706759,7.76502 -1.10365797,16.108749 2.66429428,23.22008 4.0688154,3.991341 9.8453175,1.880105 14.8811155,2.442666 4.272184,-0.157642 8.493767,0.271071 12.741815,0.288303 z"
       id="path66" />
    <path
       style="fill:#000000;stroke-width:0.0483007"
       d="M 16.707527,87.474335 C 10.998227,86.950613 8.9119409,81.248977 9.4912138,76.363285 9.0601873,68.172996 10.3212,60.006816 11.004373,51.884774 c 0.519836,-5.400489 0.556761,-11.080078 2.685648,-16.133085 2.881707,-2.72223 12.299803,-5.507569 15.347308,-1.631259 2.085225,4.048662 1.856154,8.708202 2.042457,13.107991 -0.05611,5.964274 -0.981188,11.842439 -1.493434,17.772541 -0.31579,5.385441 -0.792287,10.77223 -2.610543,15.919179 -1.247734,4.516207 -5.734523,6.785951 -10.268282,6.554194 z"
       id="path78" />
    <path
       style="fill:#000000;stroke-width:0.0483007"
       d="M 14.242247,9.6846963 C 18.283676,7.2390922 24.636934,7.9962617 26.392789,12.865168 28.374344,18.66367 24.422766,26.74871 17.593063,26.597591 9.7665922,26.438448 7.3154074,10.276701 14.242247,9.6846963 Z"
       id="path88" />
    <path
       style="fill:#ffffff;stroke-width:0.0483007"
       d="m 18.065516,22.853218 c 12.406565,-5.156283 -5.804123,-20.7910732 -3.805788,-2.512479 0.995525,1.363182 1.725863,3.273149 3.805788,2.512479 z"
       id="path90" />
    <path
       style="fill:#000000;stroke-width:0.0483007"
       d="m 42.115162,33.562416 c 0.09264,-0.24069 0.151641,0.173357 0,0 z"
       id="path86" />
    <path
       style="fill:#000000;stroke-width:0.0483007"
       d="m 37.917175,36.653957 c 0.102432,-0.26931 0.221224,-0.002 0,0 z"
       id="path84" />
    <path
       style="fill:#000000;stroke-width:0.0483007"
       d="m 37.96667,40.003703 c 0.207123,-1.94327 0.348803,0.540533 0,0 z"
       id="path82" />
    <path
       style="fill:#ffffff;stroke-width:0.0483007"
       d="m 18.342789,83.481646 c 5.260751,0.04074 4.983957,-6.323541 6.248,-9.871397 0.276054,-3.076812 0.275035,-7.503283 1.044465,-9.678104 0.0731,1.89972 0.342904,-6.222458 0.810594,-8.339904 0.278876,-6.22838 0.527504,-12.610246 -1.173173,-18.666457 -2.198489,-2.606214 -9.533665,0.105782 -8.913512,3.995694 -0.943669,7.136199 -1.083257,14.299436 -1.870351,21.446096 -0.421744,6.004236 -0.87273,12.089449 0.01637,18.065947 0.720334,1.499187 1.898253,3.248778 3.837613,3.048125 z"
       id="path80" />
    <path
       style="fill:#000000;stroke-width:0.0483007"
       d="m 53.438541,33.919922 c 0.200273,-0.244813 -0.35929,0.192679 0,0 z"
       id="path76" />
    <path
       style="fill:#000000;stroke-width:0.0483007"
       d="M 39.479153,81.280991 C 39.17908,76.829948 38.675708,73.192361 38.490201,69.207538 38.194248,61.914864 38.234736,54.583732 37.964047,47.300059 c 0.411963,-2.137283 0.368569,-2.032633 0.142032,-5.411464 -4.854916,-8.069501 8.941782,-9.035503 8.867579,-9.339118 2.774043,-1.642603 3.52841,4.917726 5.39932,2.13323 -0.389663,-1.157807 5.845419,-2.250305 8.888898,-3.940173 5.734859,-2.272039 12.65543,-1.781027 17.54057,2.147933 3.794367,2.737183 7.882591,7.292182 7.04659,11.948284 1.787559,5.230167 0.826766,10.906777 0.779235,16.321354 -0.419943,6.722726 0.589805,13.744631 -2.143711,20.131239 -0.625434,5.59684 -6.949192,6.703982 -11.631854,6.514512 C 64.28421,87.756899 71.469007,69.648257 67.962714,55.518349 64.713357,47.811653 57.065897,48.80224 54.906938,56.73924 c -0.953801,7.554189 -2.004917,15.181177 -2.621327,22.800964 -2.2679,16.757603 -12.315741,4.290497 -12.806458,1.740787 z"
       id="path68" />
    <path
       style="fill:#000000;stroke-width:0.0483007"
       d="m 85.851617,42.580592 c -0.156104,-0.278444 -0.161594,0.50636 0,0 z"
       id="path74" />
    <path
       style="fill:#000000;stroke-width:0.0483007"
       d="m 49.424023,70.540508 c -0.06783,0.154227 0.06632,0.736048 0,0 z"
       id="path72" />
    <path
       style="fill:#ffffff;stroke-width:0.0483007"
       d="m 82.02789,57.952228 c 0.772408,-3.05501 0.288411,-7.806646 -0.766119,-11.40283 0.197714,-1.554518 -2.051436,-6.572767 -4.452772,-8.846953 -2.924891,-2.770017 -7.797917,-4.149719 -12.947215,-3.927026 -4.161897,1.319177 -8.779859,2.265869 -11.206755,5.925504 -0.468362,4.967567 -5.927573,4.266934 -5.650299,2.883105 0.437608,-3.074277 0.592633,-1.630433 -0.391655,-5.822396 -6.507302,-1.602948 -4.100418,10.152705 -3.57818,16.082514 -0.07349,8.596114 0.135923,17.194411 1.470612,25.700414 -0.09454,2.830228 1.832662,8.81412 3.243182,2.750973 1.114302,-4.930169 1.060982,-10.04844 1.864171,-15.045528 0.863505,-5.566778 0.466623,-11.808631 4.536268,-16.321353 4.68177,-4.14697 12.094434,-7.769003 14.838607,-1.358165 6.533394,7.155046 3.447696,8.46047 4.120181,21.425388 -0.477195,4.604713 -2.075573,9.390894 -0.826291,13.9845 11.394889,4.217136 9.257681,-20.336084 9.746265,-26.028147 z"
       id="path70" />
  </g>
</svg>
