<?xml version="1.0" encoding="UTF-8" standalone="no"?>
<!-- Created with Inkscape (http://www.inkscape.org/) -->

<svg
   width="105.277mm"
   height="111.113mm"
   viewBox="0 0 105.277 111.113"
   version="1.1"
   id="svg5"
   inkscape:version="1.1.2 (0a00cf5339, 2022-02-04)"
   sodipodi:docname="nodejs.svg"
   xmlns:inkscape="http://www.inkscape.org/namespaces/inkscape"
   xmlns:sodipodi="http://sodipodi.sourceforge.net/DTD/sodipodi-0.dtd"
   xmlns="http://www.w3.org/2000/svg"
   xmlns:svg="http://www.w3.org/2000/svg">
  <sodipodi:namedview
     id="namedview7"
     pagecolor="#505050"
     bordercolor="#ffffff"
     borderopacity="1"
     inkscape:pageshadow="0"
     inkscape:pageopacity="0"
     inkscape:pagecheckerboard="1"
     inkscape:document-units="mm"
     showgrid="false"
     inkscape:zoom="1.478816"
     inkscape:cx="160.93957"
     inkscape:cy="214.36068"
     inkscape:window-width="1920"
     inkscape:window-height="1012"
     inkscape:window-x="1920"
     inkscape:window-y="0"
     inkscape:window-maximized="1"
     inkscape:current-layer="layer1"
     inkscape:snap-global="false" />
  <defs
     id="defs2" />
  <g
     inkscape:label="Layer 1"
     inkscape:groupmode="layer"
     id="layer1">
    <path
       style="fill:#ffffff;stroke-width:0.0400555"
       d="M 44.926373,111.09136 C 37.356751,110.82372 29.695617,108.57229 24.09746,103.24766 21.318583,100.19204 17.528958,98.420943 13.752514,97.115658 10.212018,95.143626 6.5491355,92.819134 4.9408553,88.887424 1.6735038,84.815686 3.4229541,79.54834 2.7039765,74.827908 2.4618307,69.662794 1.4028465,64.641286 0.23303443,59.626806 -0.69501247,54.845219 1.3981816,50.09579 2.1500911,45.408478 4.0476137,40.819039 4.5905998,35.917495 4.9007792,31.0042 6.4131327,24.319463 10.404592,17.823512 16.366427,14.223784 c 4.269004,-2.450866 9.848265,-2.055555 13.333806,-5.9036568 4.426219,-3.564848 9.605862,-6.5250847 15.385764,-6.7817884 3.959359,-1.69324768 8.942155,-2.6445162 12.367411,0.7148339 3.132775,3.4187265 7.449551,6.0010704 12.241814,5.5288415 5.91945,-0.3947445 13.143322,0.6957955 16.304099,6.4017308 2.268487,3.939045 6.233557,6.161601 10.031267,8.347773 5.149402,2.997334 5.388282,9.282601 6.232842,14.473906 1.22141,5.603767 2.99946,11.123086 3.0132,16.902737 -0.8429,5.319563 -5.395985,9.341885 -5.654303,14.876235 -0.391167,5.455863 0.619603,11.071748 -1.136349,16.417942 -2.14111,7.370616 -9.628752,11.449108 -16.349073,13.947447 -4.010535,0.974505 -8.807564,0.0044 -11.880153,3.406295 -5.756465,5.36823 -13.840857,6.90565 -21.312994,8.34275 -1.326638,0.26689 -2.67135,0.22 -4.017385,0.19253 z"
       id="path1012" />
    <path
       style="fill:#000000;stroke-width:0.0400555"
       d="m 2.0738931,83.583346 c 2.799e-4,-0.29456 0.2098445,0.08306 0,0 z"
       id="path4331" />
    <path
       style="fill:#00ff00;stroke-width:0.0400555"
       d="m 59.343788,73.368148 c -2.833805,-0.837672 -5.398386,-0.511464 -7.854176,-2.631233 -1.451838,-0.681241 -5.307035,-3.126464 -3.199109,-5.140364 0.326452,-0.926302 1.548801,-0.472301 2.406964,-0.371116 2.062358,2.749933 7.280097,5.42932 9.691503,4.594956 3.035218,-1.846323 0.800407,-5.322506 -0.684742,-7.4548 -2.697748,-3.859407 -8.347496,-6.250093 -8.308741,-11.571946 -0.298849,-6.102146 10.738821,-11.892746 15.757923,-8.236321 0.715122,-0.82404 5.778196,4.386356 0.977297,2.636066 -5.84431,-2.596877 -10.901227,1.655128 -9.886544,0.328799 3.078454,-1.817019 -5.883166,4.717236 -2.509774,8.275295 3.813048,3.243336 8.149476,6.426424 9.920647,11.383901 2.217593,4.037446 -0.375637,8.699267 -4.748186,7.944 z"
       id="path4329" />
    <path
       style="fill:#000000;stroke-width:0.0400555"
       d="m 43.023687,76.129182 c 0.09502,-0.210256 0.03457,0.211654 0,0 z"
       id="path4327" />
    <path
       style="fill:#000000;stroke-width:0.0400555"
       d="m 61.929934,91.287858 c 0.115426,-0.07645 0.09349,0.137702 0,0 z"
       id="path4325" />
    <path
       style="fill:#000000;stroke-width:0.0400555"
       d="m 81.036501,82.015091 c -0.04639,-0.140841 -0.106997,0.131395 0,0 z"
       id="path4323" />
    <path
       style="fill:#00ff00;stroke-width:0.0400555"
       d="m 50.174558,92.526743 c -3.125843,-0.454381 -5.669678,-3.490757 -8.785512,-3.530783 0.0445,0.844179 -2.979765,-2.419092 -0.445001,-2.839382 1.568424,0.175036 1.409845,0.174122 3.957338,-0.337858 5.086868,2.099571 9.845297,5.023553 14.803314,7.434744 2.057694,-0.807657 5.077715,-3.881492 7.589895,-5.710896 3.839355,-2.644467 7.68166,-5.247201 11.40502,-8.173487 6.020139,-0.330155 3.426959,-7.635707 3.539113,-11.610993 -0.67356,-6.988763 -1.370695,-13.986866 -0.639007,-21.005885 -1.138879,-4.310116 2.114498,-10.576931 -3.4342,-12.314386 -4.829948,-1.292258 -6.962143,-6.313701 -11.246562,-8.557884 -4.696555,-3.211494 -9.981117,-5.364329 -14.81113,-8.344711 -3.373072,0.94705 -5.969301,3.606319 -9.064531,5.219887 -3.489822,2.551275 -7.535017,3.154415 -10.799303,5.886247 -4.713399,2.82682 -8.809162,6.501922 -13.276872,9.680582 -2.050018,10.136276 0.382041,20.591043 -1.690478,30.749258 -2.380002,5.389133 3.558567,7.116748 7.285969,9.038706 1.379306,-0.01635 2.913175,2.132684 5.502977,2.826269 2.319333,0.65798 6.453689,2.886223 7.149638,-0.890947 2.735634,-21.075611 3.111941,-18.938918 1.966867,-37.07827 3.089079,-3.550316 5.264559,1.532808 4.075749,4.514873 -0.106165,7.185186 0.810418,14.420392 0.686961,21.535624 -0.41099,4.19772 -1.005023,8.387285 -2.219676,12.315412 -1.361048,2.728024 -3.730284,6.425614 -7.608869,5.006659 -4.22065,-0.156634 -7.310147,-3.588922 -10.853417,-5.501454 -3.328934,-2.389775 -8.779087,-3.396034 -10.078214,-7.532127 0.766044,-6.889011 1.997755,-13.750536 1.471575,-20.724478 -0.241665,-5.105783 0.381946,-10.284369 0.789653,-15.280207 4.930392,-3.62849 9.786843,-7.541188 15.059843,-10.752314 3.867832,-2.955546 7.82746,-5.439743 12.202168,-7.3696 3.005818,-0.832965 5.561993,-3.235626 8.05271,-4.851845 4.078104,-1.142101 6.653141,4.13404 10.857343,4.800572 5.414622,3.036938 11.248456,6.016978 14.982303,11.179324 2.432933,1.867847 5.977528,2.852818 7.539707,5.606942 1.597923,1.647241 0.115062,7.319904 0.87766,10.428122 -0.173369,5.775004 -0.371833,11.546911 0.585357,17.269961 -0.280707,4.63425 1.483416,9.687837 0.690797,13.896002 -0.2635,4.291006 -6.405321,3.610185 -8.661445,7.413489 -3.078863,3.355338 -7.444852,4.168603 -10.294307,7.464945 -8.65613,5.300737 -4.322995,5.918228 -17.163433,0.139889 z"
       id="path4321" />
  </g>
</svg>
