<?xml version="1.0" encoding="UTF-8" standalone="no"?>
<!-- Created with Inkscape (http://www.inkscape.org/) -->

<svg
   width="110.168mm"
   height="117.288mm"
   viewBox="0 0 110.168 117.288"
   version="1.1"
   id="svg5"
   inkscape:version="1.1.2 (0a00cf5339, 2022-02-04)"
   sodipodi:docname="postgres.svg"
   xmlns:inkscape="http://www.inkscape.org/namespaces/inkscape"
   xmlns:sodipodi="http://sodipodi.sourceforge.net/DTD/sodipodi-0.dtd"
   xmlns="http://www.w3.org/2000/svg"
   xmlns:svg="http://www.w3.org/2000/svg">
  <sodipodi:namedview
     id="namedview7"
     pagecolor="#505050"
     bordercolor="#ffffff"
     borderopacity="1"
     inkscape:pageshadow="0"
     inkscape:pageopacity="0"
     inkscape:pagecheckerboard="1"
     inkscape:document-units="mm"
     showgrid="false"
     inkscape:zoom="1.0456808"
     inkscape:cx="207.41402"
     inkscape:cy="213.40979"
     inkscape:window-width="1553"
     inkscape:window-height="799"
     inkscape:window-x="2427"
     inkscape:window-y="164"
     inkscape:window-maximized="0"
     inkscape:current-layer="layer1"
     inkscape:snap-global="false" />
  <defs
     id="defs2" />
  <g
     inkscape:label="Layer 1"
     inkscape:groupmode="layer"
     id="layer1">
    <path
       style="fill:#ffffff;stroke-width:0.0362308"
       d="m 18.554427,91.684132 c -0.06973,0.01573 0.05198,0.158785 0,0 z"
       id="path21150" />
    <path
       style="fill:#ffffff;stroke-width:0.0362308"
       d="m 18.988448,96.57303 c -0.0633,0.03623 0.05873,0.199549 0,0 z"
       id="path21148" />
    <path
       style="fill:#ffffff;stroke-width:0.0362308"
       d="m 22.841156,7.4904039 c 0.09255,-0.1299371 0.09255,0.129937 0,0 z"
       id="path21146" />
    <path
       style="fill:#ffffff;stroke-width:0.0362308"
       d="M 58.492513,117.26249 C 50.242094,116.99743 43.069307,112.31162 35.402558,109.80485 28.449043,107.08802 20.209411,104.6266 18.406525,96.672632 16.917316,90.862469 17.091141,83.733113 12.203119,79.525727 7.7734445,78.16654 4.9556275,73.821029 5.3028855,69.209623 5.3732435,61.46298 5.2457275,53.248097 1.1613943,46.38446 -1.7946897,38.858414 1.5809293,30.841817 3.6585415,23.522509 6.0456095,17.501958 8.6513455,9.6920528 15.812449,8.2113408 20.607997,7.5853542 23.846316,2.8408956 28.855564,2.6512051 35.113007,2.213572 41.350075,3.881323 47.592014,2.8723391 57.348975,3.1739415 66.79634,-1.6612364 76.571609,0.60807501 85.035346,1.1373396 94.068157,1.6048889 101.571,5.9691522 c 7.32798,3.9739966 9.49777,13.0716998 8.27659,20.7775408 -1.6031,9.542883 -7.27718,18.179302 -7.20955,28.080108 -0.20945,6.102519 2.60773,12.546641 -0.46222,18.319974 -3.728753,7.99763 -11.651297,14.399709 -11.387737,23.905881 0.0745,6.708684 -3.331532,11.808294 -9.363321,14.926564 -6.802369,4.40312 -14.973876,5.49779 -22.932249,5.28327 z"
       id="path21112" />
    <path
       style="fill:#ffffff;stroke-width:0.0362308"
       d="m 35.993942,17.266308 c 0.0927,-0.13414 0.13911,0.129835 0,0 z"
       id="path21144" />
    <path
       style="fill:#ffffff;stroke-width:0.0362308"
       d="m 77.021226,44.548124 c -0.119051,-0.482947 -0.02563,0.843163 0,0 z"
       id="path21142" />
    <path
       style="fill:#ffffff;stroke-width:0.0362308"
       d="m 36.327859,47.383711 c -0.05366,0.08325 0.05137,0.397564 0,0 z"
       id="path21140" />
    <path
       style="fill:#000000;stroke-width:0.0392794"
       d="M 26.620038,69.329224 C 25.284177,66.099945 23.313471,63.330483 21.548746,60.770912 20.306508,58.969163 18.61808,55.927032 18.209077,54.42463 16.383105,51.406681 16.092908,48.427782 14.218927,45.428326 13.231298,39.737435 12.5836,33.806403 14.752244,28.1121 c 1.774962,-5.752799 4.572736,-9.575909 10.328409,-11.834656 3.664271,-1.4204 3.983094,-1.578751 8.785483,-1.381829 2.186543,0.0457 5.651443,2.095345 9.16865,2.621609 4.833397,-3.100518 9.501705,-2.972276 15.089988,-3.500935 4.202375,0.67405 8.430727,-1.343145 11.58642,2.132902 3.312479,-2.677389 9.135995,-3.30998 14.006288,-2.702142 5.890741,-0.206186 11.600755,4.094595 11.865975,10.418165 1.47059,10.459926 -1.60681,19.101723 -7.379854,27.57602 -2.243387,4.790949 -9.216131,9.846199 -9.478196,11.077296 -0.862795,2.44762 2.012383,0.549301 4.452793,0.0039 1.570683,-1.355316 5.573033,-0.64664 5.884203,1.160659 -0.69986,6.051258 -6.882561,8.804212 -11.864885,8.620897 -5.620967,-2.910566 -5.709165,2.926798 -4.439563,6.940066 0.203669,6.968223 0.838061,14.435004 -5.080988,19.693734 -2.357812,2.351644 -6.118275,6.356484 -8.769093,4.047744 l -4.641148,-4.042205 c -5.936458,-6.04968 -5.920756,-12.508646 -5.661557,-19.253482 -0.04539,-3.084233 -0.397729,-1.854181 -0.315242,-4.2443 -1.346397,0.543151 -3.235344,0.994848 -5.026102,1.392863 -2.947252,1.146385 -6.70414,-0.688948 -9.082216,-2.124741"
       id="path21116-3"
       sodipodi:nodetypes="cscccccccccccccccccsccccc" />
    <path
       style="fill:#ffffff;stroke-width:0.0362308"
       d="M 43.229433,63.851797 C 42.151231,67.473089 39.512227,71.6048 35.081725,72.588807 32.244175,72.3738 30.5426,68.957573 28.067689,67.3917 c -1.232185,-2.978653 -2.56972,-4.95235 -4.197483,-7.313271 -1.145827,-1.661914 -2.805835,-3.519619 -3.183094,-4.905418 -1.684257,-2.783725 -2.23651,-6.076967 -3.96505,-8.843632 -0.910979,-5.249217 -2.624074,-10.767267 -0.623741,-16.019631 1.637207,-5.30632 5.290763,-10.504327 10.599733,-12.587772 -0.775309,0.93136 6.106968,-2.311636 8.045318,-0.654606 2.016843,0.04215 5.289672,1.931699 8.533906,2.417119 4.458274,-2.859884 10.062387,-3.348359 15.216959,-3.835987 3.876225,0.621737 8.372884,-0.03 11.28366,3.176269 3.055395,-2.469595 7.984976,-4.297822 12.477282,-3.737159 5.433558,-0.190184 11.565158,3.555163 11.809788,9.387956 1.35647,9.648124 -2.864814,19.191842 -8.189806,27.008442 -2.069279,4.41912 -9.213847,10.960367 -9.455574,12.095918 -0.795832,2.257658 4.070303,1.449927 6.32131,0.946862 1.448781,-1.250129 4.288102,-1.922974 4.575115,-0.255941 -0.645536,5.581614 -6.997105,6.625834 -11.592748,6.456746 -5.184719,-2.684675 -6.073707,3.258705 -4.902638,6.960499 0.18786,6.427414 1.865598,14.343556 -3.594069,19.194152 -2.174821,2.169134 -5.987616,6.134224 -8.280369,3.841474 h -5e-6 c -4.281052,-4.281052 -7.819167,-7.41255 -8.402548,-12.499306 -0.04031,-3.488611 -1.637212,-7.403756 -0.07533,-10.682295 -0.04187,-2.844865 0.219573,-3.331725 0.295657,-5.536345 -1.241902,0.500997 -1.110282,0.586302 -2.750296,1.098921 -2.300068,1.801041 -8.123144,3.252621 -8.801121,1.262617 1.668163,-1.677723 6.197178,-6.698875 6.434739,-6.885164 1.003989,-2.133807 -0.194082,-4.421067 -1.533701,-5.893587"
       id="path21116" />
    <path
       style="fill:#3771c8;stroke-width:0.0362308"
       d="m 68.763544,60.287898 c 4.794439,0 7.214432,-11.360003 5.653269,-20.132143 0.109102,-2.23836 1.460087,-6.126281 -0.117542,-7.863497 -5.21148,0.02319 -7.014889,4.767838 -8.596256,8.940972 -0.918186,2.423041 -1.934637,8.554278 -0.58025,11.484953 0.512719,2.53393 1.565993,7.569715 3.640775,7.569715 z"
       id="path21130" />
    <path
       style="fill:#ffffff;stroke-width:0.0362308"
       d="m 50.631204,40.888796 c -0.139103,-0.129877 -0.0927,0.134183 0,0 z"
       id="path21138" />
    <path
       style="fill:#3771c8;stroke-width:0.0362308"
       d="m 47.053395,56.188414 c 2.812702,-5.009948 4.977914,-10.584963 6.792768,-15.926921 1.79462,-3.410489 0.06198,-8.110701 -4.609814,-6.5298 -3.623388,1.659186 -10.643807,2.420156 -10.745423,7.009682 -0.0053,6.496902 -0.702324,14.933747 5.653988,18.855073 1.832495,0.748446 2.498722,-1.883627 2.908481,-3.408034 z"
       id="path21134" />
    <path
       style="fill:#ffffff;stroke-width:0.0362308"
       d="m 50.427825,41.007246 c -5.211254,-0.567794 -1.232849,-9.066727 2.395394,-4.646904 0.813673,1.745797 -0.283246,4.51322 -2.395394,4.646904 z"
       id="path21136" />
    <path
       style="fill:#ffffff;stroke-width:0.0362308"
       d="m 70.097786,40.688071 c -4.47827,-0.159764 -1.572263,-6.583333 1.610137,-4.017346 2.479218,0.699419 -0.09526,3.817081 -1.610137,4.017346 z"
       id="path21132" />
    <path
       style="fill:#3771c8;stroke-width:0.0362308"
       d="M 72.083838,64.757835 C 82.109445,54.214485 92.005513,38.62383 91.193223,26.305999 91.343053,21.596528 87.556962,17.560765 82.897908,17.228984 79.173534,16.52975 68.637624,18.2491 73.32125,23.380015 c 3.476593,4.670849 5.302611,10.478105 4.097701,16.295158 -1.243091,2.509925 1.162014,7.801069 -0.839381,12.394393 -0.13783,4.390807 -4.684862,8.504304 -5.156373,11.703462 -0.03934,0.26691 0.355708,1.381389 0.660641,0.984807 z"
       id="path21128" />
    <path
       style="fill:#3771c8;stroke-width:0.0362308"
       d="m 80.953292,66.41175 c -5.286787,-0.360534 -1.541342,-0.301398 -6.573346,-0.473301 -1.068172,-0.536658 -2.971514,3.341077 1.340574,2.49706 3.60559,-0.112942 13.331423,-2.594307 5.232772,-2.023759 z"
       id="path21126" />
    <path
       style="fill:#3771c8;stroke-width:0.0362308"
       d="m 43.81767,73.18745 c 2.876176,-0.801577 7.012713,-3.896018 6.270084,-7.060113 -0.894022,-1.916624 -1.580303,1.910359 -2.657128,3.24673 -0.964122,1.321246 -2.864636,2.998068 -3.612956,3.813383 z"
       id="path21124" />
    <path
       style="fill:#ffffff;stroke-width:0.0362308"
       d="m 68.94646,69.775983 c 0.01611,-0.318189 0.103594,0.13399 0,0 z"
       id="path21122" />
    <path
       style="fill:#3771c8;stroke-width:0.0362308"
       d="m 61.17439,98.374675 c 5.027947,-1.536769 7.951727,-6.81857 7.354597,-11.914086 -0.161187,-4.828786 -0.407916,-8.343956 -0.3425,-12.493069 -0.927006,-2.163184 3.057285,-6.835645 1.510809,-7.417117 -2.940407,-3.279792 -5.148835,-7.461613 -6.532733,-11.644823 -1.764288,-6.449151 -0.99158,-13.69908 2.335013,-19.505817 1.219949,-5.560501 12.590863,-2.489111 7.180949,-8.617 -1.874831,-3.801077 -5.079783,-8.623166 -9.821573,-8.300866 -5.614704,-1.410113 -11.584846,-0.17234 -16.84735,1.913432 -4.543321,3.080498 -6.409475,9.196117 -6.22682,14.510834 -0.394347,1.967782 6.654435,-3.76472 9.715869,-3.044733 5.163026,-1.18661 9.56663,3.40207 6.98147,8.266492 -1.618735,4.820788 -3.613107,9.531774 -6.004991,14.012449 -1.285148,0.671884 -1.542817,4.021359 -2.545692,5.515958 -3.341622,2.47723 6.446991,2.663984 4.571076,7.74067 1.030756,3.69349 0.457952,8.56286 0.230838,12.59415 0.680796,5.119733 0.135497,10.545984 2.810538,15.222429 0.875332,1.984385 3.449785,3.497972 5.6305,3.161097 z"
       id="path21120" />
    <path
       style="fill:#3771c8;stroke-width:0.0362308"
       d="m 42.064256,60.430697 c -1.997576,-1.562851 -5.255844,-4.804866 -5.237482,-6.933492 -3.305002,-8.191516 4.314573,-32.203573 2.663048,-32.887262 -4.064531,-1.960733 -9.322531,-3.373152 -13.060239,0.02386 -6.299688,5.068228 -9.383319,13.448834 -8.115936,21.396384 0.08253,4.439113 1.907111,7.234582 3.593362,11.304029 2.550187,4.934737 6.286581,8.981868 9.532135,13.459764 2.155298,4.560929 4.758702,2.97316 7.491796,-0.477096 0.663657,-0.8378 1.929459,-2.614408 2.249798,-3.644894"
       id="path21118" />
  </g>
</svg>
