<?xml version="1.0" encoding="UTF-8" standalone="no"?>
<!-- Created with Inkscape (http://www.inkscape.org/) -->

<svg
   width="106.829mm"
   height="112.648mm"
   viewBox="0 0 106.82901 112.648"
   version="1.1"
   id="svg5"
   inkscape:version="1.1.2 (0a00cf5339, 2022-02-04)"
   sodipodi:docname="react.svg"
   xmlns:inkscape="http://www.inkscape.org/namespaces/inkscape"
   xmlns:sodipodi="http://sodipodi.sourceforge.net/DTD/sodipodi-0.dtd"
   xmlns="http://www.w3.org/2000/svg"
   xmlns:svg="http://www.w3.org/2000/svg">
  <sodipodi:namedview
     id="namedview7"
     pagecolor="#505050"
     bordercolor="#ffffff"
     borderopacity="1"
     inkscape:pageshadow="0"
     inkscape:pageopacity="0"
     inkscape:pagecheckerboard="1"
     inkscape:document-units="mm"
     showgrid="false"
     inkscape:zoom="1.478816"
     inkscape:cx="160.26335"
     inkscape:cy="214.36068"
     inkscape:window-width="1920"
     inkscape:window-height="1012"
     inkscape:window-x="1920"
     inkscape:window-y="0"
     inkscape:window-maximized="1"
     inkscape:current-layer="layer1" />
  <defs
     id="defs2" />
  <g
     inkscape:label="Layer 1"
     inkscape:groupmode="layer"
     id="layer1">
    <path
       style="fill:#ffffff;stroke-width:0.0389671"
       d="M 46.732949,112.64225 C 40.432331,112.50257 35.783328,107.65174 29.94866,106.12487 24.422335,105.28823 18.499487,107.33578 13.201904,105.14856 9.5437357,102.83303 6.5445889,99.248179 7.0510336,94.606631 6.2704122,86.697526 3.2460632,79.307196 0.82617911,71.830508 -0.08906029,66.529019 -0.41801869,61.1886 0.75254261,55.892979 -1.6499122,34.879583 12.895687,22.795049 22.916102,12.998652 26.725517,7.753102 32.603098,4.4885956 38.937558,3.3728885 43.590626,1.5639316 48.473044,2.3112034 53.069905,0.34552948 60.922119,-1.2300737 68.213095,2.9433641 75.315286,5.5963186 88.642371,8.5945285 90.853515,18.520438 97.674027,27.02525 c 2.25218,4.002969 4.314923,8.056812 5.283313,12.56973 6.14565,8.971623 4.37082,21.145064 -1.10229,29.994999 -2.347983,4.375422 -4.231993,9.160066 -3.215243,14.212832 -0.20969,6.057766 -2.981437,11.861687 -7.448011,15.943053 -4.944111,4.968506 -11.828918,7.026516 -18.584837,8.049526 -5.451247,1.58419 -11.218448,1.3218 -16.553725,3.40452 -3.080052,0.55755 -6.170913,1.52921 -9.320285,1.44234 z"
       id="path189" />
    <path
       style="fill:#0000ff;stroke-width:0.0407047"
       d="M 36.21271,91.322328 C 29.268911,89.994516 22.495569,90.058392 20.860391,82.885706 20.61216,77.380318 23.927266,72.630983 26.020542,67.76743 14.581703,63.232366 10.927565,61.161437 14.068878,52.283094 19.9713,43.835069 21.63264,45.173711 32.339006,44.059216 c -4.555674,-9.310847 -3.888413,-25.843 8.178019,-24.284044 5.583267,0.516971 9.775771,4.596508 13.019929,8.820407 9.696966,-3.913864 11.196869,-7.958546 19.038626,-7.992995 5.93043,0.532631 10.38407,6.642003 8.258252,12.419491 -11.249868,14.540418 14.473896,16.93965 8.723513,30.263831 -0.768045,5.329479 -11.214566,2.952444 -9.009512,8.055966 0.12321,4.963632 0.671821,10.80646 -2.504049,14.967217 -3.721572,4.753242 -9.618222,8.986624 -19.114553,3.599372 -5.124749,-5.040777 -6.926225,-8.32563 -8.015667,-6.218411 -3.309138,6.400599 -11.756596,8.195286 -14.700854,7.632278 z"
       id="path70" />
    <path
       style="fill:#000000;stroke-width:0.0407047"
       d="m 95.102904,22.282036 c -0.285671,-0.348188 0.232562,0.499044 0,0 z"
       id="path104" />
    <path
       style="fill:#000000;stroke-width:0.0389671"
       d="m 13.821027,101 c -0.106508,-0.25004 -0.120609,0.0604 0,0 z"
       id="path102" />
    <path
       style="fill:#000000;stroke-width:0.0407047"
       d="m 91.583429,98.731137 c -65.458334,-63.314773 -32.729167,-31.657386 0,0 z"
       id="path100" />
    <path
       style="fill:#000000;stroke-width:0.0407047"
       d="m 77.93859,23.538114 c -0.70714,-0.458741 0.567935,0.601479 0,0 z"
       id="path98" />
    <path
       style="fill:#000000;stroke-width:0.0407047"
       d="m 78.69734,24.228896 c -0.191556,-0.186602 0.07631,0.207255 0,0 z"
       id="path96" />
    <path
       style="fill:#ffffff;stroke-width:0.0407047"
       d="m 73.400862,42.60821 c 2.392115,-4.845235 4.946132,-10.826367 3.257174,-16.100211 -3.35704,-5.518656 -9.950542,-1.393463 -14.251692,0.66348 -2.767086,0.56362 -9.109933,3.373909 -5.017174,6.392523 2.806924,3.563495 4.370162,8.881997 9.884223,8.455978 1.988658,-0.505421 8.098677,1.157922 6.127469,0.58823 z"
       id="path94" />
    <path
       style="fill:#ffffff;stroke-width:0.0407047"
       d="m 32.406274,35.900369 c 1.687812,7.24865 4.129403,9.104059 9.052334,2.569646 1.447844,-1.921784 9.347509,-8.545831 8.288036,-10.036644 -3.436234,-4.835217 -7.255136,-6.093147 -11.040874,-6.351316 -5.3045,-0.36174 -6.584798,5.804866 -6.299496,13.818314 z"
       id="path3381"
       sodipodi:nodetypes="csssc" />
    <path
       style="fill:#ffffff;stroke-width:0.0407047"
       d="m 45.103213,43.248894 c 3.280782,-0.730395 10.454108,-1.195428 13.696986,-1.341601 0.641376,-2.290354 -4.958738,-8.732871 -6.279709,-9.417359 -3.316115,1.155316 -11.357126,9.987107 -7.417277,10.75896 z"
       id="path92"
       sodipodi:nodetypes="cccc" />
    <path
       style="fill:#ffffff;stroke-width:0.0407047"
       d="m 49.411137,69.025588 c 4.103946,-1.242968 6.924352,-0.791991 9.507168,-0.945901 2.351434,-3.613588 5.526347,-9.932254 7.757945,-14.155095 -1.725716,-2.902436 -3.962905,-6.223846 -6.345918,-9.341915 -1.186895,-0.247089 -8.084582,0.28615 -11.163452,0.751021 -4.678087,-0.794446 -8.209631,2.365569 -9.627401,6.227993 -6.831236,-12.644947 4.706557,8.495846 6.343453,12.55381 1.134082,1.370952 1.434988,4.952153 3.528205,4.910087 z"
       id="path78" />
    <path
       style="fill:#ffffff;stroke-width:0.0407047"
       d="m 69.785815,46.34197 c -4.795345,-2.203824 -4.585206,-0.0066 -1.58342,3.330712 0.963132,0.763926 4.01423,-2.210232 1.58342,-3.330712 z"
       id="path90" />
    <path
       style="fill:#ffffff;stroke-width:0.040964"
       d="m 36.796284,44.664429 c 4.338143,-2.46723 4.14804,-0.0074 1.432452,3.728807 -0.871304,0.855232 -3.631501,-2.474403 -1.432452,-3.728807 z"
       id="path90-3" />
    <path
       style="fill:#ffffff;stroke-width:0.0407047"
       d="m 35.383185,51.445855 c -2.574342,-5.868864 -7.019061,-3.987109 -11.453524,-3.401932 -4.856617,0.646622 -9.926738,8.314691 -6.209654,11.721142 12.57285,11.77784 10.089866,-2.397478 17.663178,-8.31921 z"
       id="path88" />
    <path
       style="fill:#ffffff;stroke-width:0.0407047"
       d="m 79.756477,65.426057 c 6.076038,0.380371 8.434059,-5.936314 4.341577,-10.027842 -1.746652,-2.96988 -7.248917,-10.864613 -10.084773,-5.684112 -5.40641,4.889604 1.566001,8.389635 3.637834,12.953838 1.100787,0.569595 0.458148,3.341374 2.105362,2.758116 z"
       id="path86" />
    <path
       style="fill:#ffffff;stroke-width:0.0407047"
       d="m 63.963055,67.054858 c 3.828111,-1.639446 11.652121,1.534515 8.424347,-5.152226 -1.580354,-3.2739 -4.153559,-5.024608 -5.175923,-0.316432 0.02438,1.164519 -4.752996,6.113014 -3.248424,5.468658 z"
       id="path84" />
    <path
       style="fill:#000000;stroke-width:0.0407047"
       d="m 81.873128,67.967672 c -0.198487,-0.127267 -0.881266,0.125126 0,0 z"
       id="path82" />
    <path
       style="fill:#0000ff;stroke-width:0.0407047"
       d="m 52.50177,60.224678 c -1.720902,0.307568 -5.288218,-3.927572 -2.727209,-7.080493 5.11315,-5.020388 10.72653,3.388045 6.500059,6.025392 -1.217548,0.983214 -2.278677,0.947882 -3.77285,1.055101 z"
       id="path80" />
    <path
       style="fill:#ffffff;stroke-width:0.0407047"
       d="m 41.941821,69.082529 c 5.961789,0.612153 -2.157205,-7.026707 -2.21179,-9.997614 -1.302954,-1.620988 -2.321567,-6.327332 -3.236825,-4.655617 -1.065673,1.94645 -3.599799,5.660254 -4.253617,9.386317 -2.175759,2.773314 7.595357,4.683645 9.702232,5.266914 z"
       id="path76" />
    <path
       style="fill:#ffffff;stroke-width:0.0407047"
       d="m 52.812833,75.976143 c 1.92226,-2.322633 4.573513,-5.17719 -0.53202,-3.757352 -4.179026,-0.719297 0.262835,2.717419 0.53202,3.757352 z"
       id="path74" />
    <path
       style="fill:#ffffff;stroke-width:0.0407047"
       d="m 68.399869,88.646268 c 3.729851,-0.994571 12.239606,-5.136407 7.931647,-19.321383 -3.302815,0.272215 -5.328885,0.68449 -6.676275,0.562257 -3.49139,-0.189411 -6.918793,0.276308 -11.345646,3.270366 -1.913095,3.90403 -3.431453,4.74973 -2.951161,6.832562 2.957894,4.483713 6.956994,9.73727 13.041435,8.656198 z"
       id="path72" />
    <path
       style="fill:#ffffff;stroke-width:0.0407047"
       d="m 40.571141,71.324706 c -4.245917,0.139012 -10.550735,-3.500357 -11.702836,-1.393521 -2.855287,5.221436 -5.688235,11.347043 -2.723158,15.291202 1.575147,2.095267 13.730351,3.844172 17.717751,0.911134 2.39166,-1.831457 4.417676,-4.623358 5.509751,-6.820781 -2.697028,-5.945903 -4.661497,-8.187954 -8.801508,-7.988034 z"
       id="path68" />
  </g>
</svg>
