<?xml version="1.0" encoding="UTF-8" standalone="no"?>
<!-- Created with Inkscape (http://www.inkscape.org/) -->

<svg
   width="104.116mm"
   height="102.045mm"
   viewBox="0 0 104.116 102.045"
   version="1.1"
   id="svg5"
   inkscape:version="1.1.2 (0a00cf5339, 2022-02-04)"
   sodipodi:docname="typescript.svg"
   xmlns:inkscape="http://www.inkscape.org/namespaces/inkscape"
   xmlns:sodipodi="http://sodipodi.sourceforge.net/DTD/sodipodi-0.dtd"
   xmlns="http://www.w3.org/2000/svg"
   xmlns:svg="http://www.w3.org/2000/svg">
  <sodipodi:namedview
     id="namedview7"
     pagecolor="#505050"
     bordercolor="#ffffff"
     borderopacity="1"
     inkscape:pageshadow="0"
     inkscape:pageopacity="0"
     inkscape:pagecheckerboard="1"
     inkscape:document-units="mm"
     showgrid="false"
     inkscape:zoom="1.0456808"
     inkscape:cx="41.121535"
     inkscape:cy="166.39877"
     inkscape:window-width="1920"
     inkscape:window-height="1012"
     inkscape:window-x="1920"
     inkscape:window-y="0"
     inkscape:window-maximized="1"
     inkscape:current-layer="layer1"
     inkscape:snap-global="false" />
  <defs
     id="defs2" />
  <g
     inkscape:label="Layer 1"
     inkscape:groupmode="layer"
     id="layer1">
    <path
       style="fill:#ffffff;stroke-width:0.0365236"
       d="M 4.5251434,97.587976 C 0.79723595,92.105745 1.8838716,84.997631 2.0485914,78.718763 2.822014,70.389304 1.7403145,62.053048 1.5000456,53.731955 0.85300337,46.272583 1.1454217,38.754293 0,31.341798 0.15002975,24.41291 0.42690617,17.242832 2.895269,10.707663 6.8001215,5.1357503 13.287652,1.5852457 20.122773,1.5507699 25.297639,0.66725718 30.470868,-0.32889544 35.762684,0.10486025 40.908177,0.76806579 46.781089,-0.93475933 51.703283,0.95611643 64.521076,-0.16051808 77.69963,-0.65168784 89.817087,4.7278548 c 4.811822,2.487149 8.920513,6.7024462 9.912372,12.1870132 1.443081,4.988088 1.620331,10.66132 1.605741,15.560413 -0.097,1.860198 0.69583,7.44108 0.8767,10.627121 0.14393,3.086039 0.56548,6.147886 0.7859,8.692657 0.66946,5.856349 0.88963,11.767782 1.11786,17.65924 -0.75714,6.929738 -0.45339,14.178577 -3.59107,20.599394 -1.175997,5.685727 -7.271196,7.585402 -12.122793,9.025851 -7.745447,1.481696 -15.66663,3.440606 -23.553863,1.730796 -16.448567,-3.033483 -15.560006,0.38214 -39.100789,1.23477 -7.751892,-0.82697 -16.8403451,-0.65863 -21.2220016,-4.457134 z"
       id="path28641" />
    <path
       style="fill:#000000;stroke-width:0.0251587"
       d="m 74.377442,51.147054 c -0.318817,-0.05169 -0.06477,0.03224 0,0 z"
       id="path40" />
    <path
       style="fill:#000000;stroke-width:0.0286312"
       d="m 32.040001,88.406429 c 6.494512,-0.104622 12.236583,0.678701 18.717382,0.30625 1.323797,0.515361 7.259808,0.592641 9.637466,0.80139 4.99714,0.778541 9.059931,1.367082 14.079635,0.182603 4.020637,-0.608816 8.311107,-2.273153 10.481378,-6.278746 1.665138,-3.371665 3.148614,-5.889647 3.495757,-9.650862 0.605316,-4.242175 0.50127,-9.90552 0.07616,-14.202799 0.179413,-5.831304 -0.175411,-10.526904 -0.285936,-16.355402 0.05326,-7.942457 2.562174,-20.506149 -3.094812,-24.642959 -5.4041,-3.880316 -9.716619,-3.842331 -16.192857,-4.121678 -5.725153,0.571528 -13.426527,0.22203 -19.174827,-0.05984 C 44.273,14.056492 34.984594,12.696281 29.509421,13.931681 c -4.15832,0.215676 -6.395996,0.675153 -9.365426,3.990963 -2.923667,2.446293 -4.050712,6.179616 -4.92428,9.597317 -1.506071,5.774623 -0.860881,9.923404 -1.220603,15.784873 -0.167177,9.545895 0.16759,14.457181 -1.182334,23.950984 -0.176611,3.857797 0.559431,11.466571 3.386537,14.584255 3.837229,2.811477 5.767231,6.119868 10.201144,7.092956 0.917297,0.09533 4.714738,-0.539879 5.635534,-0.526598 z"
       id="path28-3"
       sodipodi:nodetypes="scccccccccccccccccss" />
    <path
       style="fill:#0055d4;stroke-width:0.0263902"
       d="m 33.404921,85.766599 c 5.986184,-0.09644 11.974765,-0.276697 17.948309,-0.619998 1.220183,0.475024 5.995631,1.448535 8.187187,1.640944 4.606011,0.717604 7.686199,0.749218 12.313011,-0.342553 3.705932,-0.561166 8.534377,-0.657362 10.534777,-4.349434 1.534808,-3.107764 2.692994,-6.355669 3.012962,-9.822489 0.557937,-3.910139 1.175882,-7.824494 0.784055,-11.785423 0.165375,-5.374885 -0.875532,-11.008672 -0.977406,-16.380969 0.04909,-7.320797 3.255469,-18.93851 -1.958741,-22.751529 -4.981116,-3.5766 -10.515328,-3.534059 -16.484667,-3.791541 -5.277042,0.526795 -11.092785,-1.06962 -16.391162,-1.329428 -5.075362,-0.302227 -14.395419,-1.231505 -19.442048,-0.0928 -3.832844,0.198796 -6.831214,1.158478 -9.568224,4.214759 -2.694831,2.254818 -2.656605,6.13942 -3.461799,9.289616 -1.388189,5.322638 -1.492097,10.212137 -1.823664,15.614826 -0.15409,8.798731 1.207052,14.129479 -0.03721,22.880197 -0.162786,3.555845 1.231196,9.783058 3.837023,12.656722 3.536887,2.591418 4.246292,4.55756 8.333161,5.454483 0.845501,0.08788 4.345711,-0.49762 5.194437,-0.48538 z"
       id="path28"
       sodipodi:nodetypes="scccccccccccccccccss" />
    <path
       style="fill:#000000;stroke-width:0.0251587"
       d="m 64.638871,83.240429 c -3.374288,0.120132 -7.185276,-2.024019 -6.477865,-5.531309 -0.556971,-3.695276 3.427611,-4.919336 6.137085,-2.538703 2.366782,1.066093 7.832351,1.296777 8.472968,-1.099043 -2.321668,-2.649515 -6.754065,-3.150824 -8.567132,-6.373774 -2.359525,-5.692026 1.396676,-16.09468 7.449609,-16.843312 3.238108,0.29785 7.07201,0.101473 9.704554,2.034004 1.101778,1.54967 2.812466,5.583873 -0.312051,6.045307 -2.854181,0.585051 -6.276436,-1.447163 -8.464806,0.988255 -2.133339,3.474271 4.68042,4.800835 6.246986,7.567252 1.565713,1.365026 2.994075,5.085969 2.447205,7.990857 -1.567217,3.313263 -3.954199,7.335517 -8.466308,7.387772 -2.733246,-0.02653 -5.443363,0.438802 -8.170149,0.372699 z"
       id="path36" />
    <path
       style="fill:#ffffff;stroke-width:0.0251587"
       d="m 66.763731,80.975525 c 3.141537,-0.737498 7.175367,0.633791 9.570114,-1.866104 2.293469,-2.296616 2.904186,-5.65724 1.378269,-8.499909 -1.962751,-3.068718 -5.565583,-4.77699 -8.194557,-7.24564 -2.111358,-3.334572 2.372032,-7.00166 5.93564,-7.106933 2.364131,0.777829 5.927439,1.020127 3.528492,-1.876797 -0.982547,-0.455549 -2.708259,-0.898019 -3.692607,-1.672902 -3.006466,-0.793177 -6.331911,0.903627 -7.240011,4.03512 -1.377648,3.018801 -3.317444,6.733052 -1.366135,9.911742 2.055496,3.38508 7.683814,3.379942 9.006632,7.259477 -0.03644,3.780247 -5.947096,4.041975 -9.086775,4.092658 -3.085396,-0.45773 -7.437485,-2.717328 -4.911799,1.954556 1.45205,0.910713 3.36407,1.077439 5.072737,1.014732 z"
       id="path38" />
    <path
       style="fill:#000000;stroke-width:0.0251587"
       d="M 43.788975,82.362771 C 40.31281,81.652852 39.863657,77.84754 40.040777,75.1761 c -0.204543,-3.841415 0.997973,-7.624362 0.689767,-11.442874 -1.808977,-2.659827 -6.532113,0.910127 -8.121199,-1.789445 0.516957,-3.276055 -1.034705,-7.021104 0.134347,-9.971552 2.91539,-3.003011 6.757282,-0.552882 10.320661,-0.743401 4.457901,0.2574 8.901272,-0.468007 13.367645,-0.132165 1.264296,-7.32e-4 4.916257,-0.267147 4.816742,2.576165 0.0438,3.045083 0.817601,8.177838 -4.26193,7.548305 -2.429069,0.486092 -6.673792,-0.52579 -5.231928,3.125125 0.214923,3.288992 -0.114201,6.60176 0.711205,9.832784 -0.767783,2.295129 0.23129,5.373343 -1.551662,7.190248 -2.120889,0.871651 -4.801111,1.124662 -7.125448,0.993481 z"
       id="path30" />
    <path
       style="fill:#000000;stroke-width:0.0251587"
       d="m 49.362459,61.385208 c -0.04108,0.06682 0.01927,0.348866 0,0 z"
       id="path34" />
    <path
       style="fill:#ffffff;stroke-width:0.0251587"
       d="m 46.223137,80.449945 c 4.456025,0.793824 3.044896,-4.331694 3.392232,-6.750955 -0.898652,-3.558031 -0.208644,-7.268931 -0.641203,-10.854293 -0.526748,-3.989394 4.681941,-2.555066 7.220016,-3.396992 3.690641,0.649246 2.199339,-4.528924 1.849663,-6.441942 -5.472978,-0.533527 -10.958183,0.278971 -16.426006,-0.28351 -1.848297,-0.333091 -3.755069,-0.272118 -4.966346,-0.595563 -3.652786,1.066798 -0.348716,5.569111 -1.294442,8.170249 0.9445,1.843996 8.011261,-0.956416 8.134448,3.23165 0.232967,4.003152 -0.934452,7.971972 -0.699586,11.998647 -0.189443,2.119758 0.442592,5.135454 3.431227,4.92271 z"
       id="path32" />
  </g>
</svg>
