<?xml version="1.0" encoding="UTF-8" standalone="no"?>
<svg
   version="1.0"
   width="1080.000000pt"
   height="1080.000000pt"
   viewBox="0 0 1080.000000 1080.000000"
   preserveAspectRatio="xMidYMid meet"
   id="svg34"
   sodipodi:docname="profile.svg"
   inkscape:version="1.1.2 (0a00cf5339, 2022-02-04)"
   inkscape:export-filename="profile.png"
   inkscape:export-xdpi="34.130001"
   inkscape:export-ydpi="34.130001"
   xmlns:inkscape="http://www.inkscape.org/namespaces/inkscape"
   xmlns:sodipodi="http://sodipodi.sourceforge.net/DTD/sodipodi-0.dtd"
   xmlns:xlink="http://www.w3.org/1999/xlink"
   xmlns="http://www.w3.org/2000/svg"
   xmlns:svg="http://www.w3.org/2000/svg">
  <defs
     id="defs38">
    <linearGradient
       inkscape:collect="always"
       id="linearGradient1113">
      <stop
         style="stop-color:#00b1ff;stop-opacity:1"
         offset="0"
         id="stop1109" />
      <stop
         style="stop-color:#ffcaff;stop-opacity:1"
         offset="1"
         id="stop1111" />
    </linearGradient>
    <linearGradient
       id="linearGradient4096"
       inkscape:swatch="solid">
      <stop
         style="stop-color:#3f18c6;stop-opacity:1;"
         offset="0"
         id="stop4094" />
    </linearGradient>
    <linearGradient
       inkscape:collect="always"
       xlink:href="#linearGradient1113"
       id="linearGradient1115"
       x1="1099.6542"
       y1="1094.8087"
       x2="-17.140137"
       y2="-14.823875"
       gradientUnits="userSpaceOnUse" />
    <filter
       inkscape:collect="always"
       style="color-interpolation-filters:sRGB"
       id="filter40664"
       x="-0.092894417"
       y="-0.060028905"
       width="1.1857888"
       height="1.1200578">
      <feGaussianBlur
         inkscape:collect="always"
         stdDeviation="21.872479"
         id="feGaussianBlur40666" />
    </filter>
  </defs>
  <sodipodi:namedview
     id="namedview36"
     pagecolor="#00c7ff"
     bordercolor="#ffffff"
     borderopacity="1"
     inkscape:showpageshadow="0"
     inkscape:pageopacity="1"
     inkscape:pagecheckerboard="1"
     inkscape:deskcolor="#505050"
     inkscape:document-units="pt"
     showgrid="false"
     inkscape:zoom="0.25"
     inkscape:cx="364"
     inkscape:cy="896"
     inkscape:window-width="1920"
     inkscape:window-height="1012"
     inkscape:window-x="0"
     inkscape:window-y="0"
     inkscape:window-maximized="1"
     inkscape:current-layer="svg34"
     inkscape:pageshadow="2"
     inkscape:snap-global="false" />
  <rect
     style="opacity:1;fill:url(#linearGradient1115);fill-opacity:1;stroke:#000000;stroke-width:0;stroke-dasharray:none"
     id="rect14195"
     width="1116.7943"
     height="1109.6326"
     x="-17.140137"
     y="-14.823875"
     inkscape:label="background" />
  <path
     style="mix-blend-mode:normal;fill:#000000;fill-opacity:1;stroke:#000000;stroke-width:0;stroke-dasharray:none;stroke-opacity:1;filter:url(#filter40664)"
     d="m 303.18109,932.5546 c 10.36248,26.48518 71.07853,32.85338 88.04766,33.12438 32.11252,0.5128 89.32898,-7.9295 118.30371,-16.4438 31.58697,-9.28188 127.13607,-9.63438 172.65022,-7.01108 47.53363,2.7397 58.55263,18.95428 77.20113,-2.805 16.131,-18.8218 3.4634,-122.22289 0.4174,-136.53069 -6.8106,-31.9923 -40.6897,-49.8227 -60.69894,-53.6355 -17.23158,-3.2836 -73.77362,-10.15389 -73.19905,-23.5417 0.7226,-16.83723 54.17506,-20.66018 93.94389,-65.53448 13.8952,-15.67909 33.1212,-73.94471 43.4996,-74.61861 12.1587,-0.78952 53.3826,-36.66894 57.3777,-73.39475 5.8164,-53.46786 -13.0988,-80.71918 -22.7252,-84.02742 -7.1658,-2.46266 -0.2144,-109.48196 -14.3364,-140.6405 -7.0192,-15.48698 -41.7043,-88.60677 -48.2192,-88.1632 -11.4889,0.78223 -57.99061,-58.34008 -69.85888,-57.76967 -8.71403,0.41881 -58.98786,-38.89912 -69.87818,-36.92137 -13.63295,2.47582 -44.79521,-15.090146 -55.00799,-13.287786 -11.26038,1.98725 -44.63631,26.501946 -53.58075,24.705546 -11.02356,-2.21397 -44.78659,40.71436 -60.58284,38.08094 -19.86465,-3.31168 -51.62538,51.14141 -60.66187,49.9888 -33.05797,-4.21656 -67.74439,107.56951 -78.16989,141.03634 -8.28462,26.59439 7.90397,82.63959 0.64381,85.55892 -14.41734,5.79725 -29.80861,36.45563 -31.47475,63.40697 -2.16159,34.96552 18.99386,94.05528 54.82675,93.78513 8.78201,-0.0662 19.97528,48.96802 50.95836,80.08469 60.01484,60.27361 115.22845,39.74146 115.55785,60.14185 0.24793,15.35528 -98.08283,23.959 -128.39259,43.966 -50.80121,33.5332 -62.64716,119.53759 -46.64155,160.44599 z"
     id="path46574-2"
     inkscape:label="backdrop"
     sodipodi:nodetypes="ssssssssssssssssssssssssssss" />
  <path
     style="opacity:1;fill:#ffffff;fill-opacity:1;stroke:#000000;stroke-width:0;stroke-dasharray:none;stroke-opacity:1"
     d="m 292.87913,922.18836 c 10.36248,26.48522 71.07853,32.85342 88.04766,33.12439 32.11252,0.51279 89.32898,-7.92942 118.30371,-16.44373 31.58697,-9.28192 127.13607,-9.63443 172.65022,-7.01113 47.53367,2.73971 58.55263,18.95431 77.20118,-2.80504 16.13097,-18.8218 3.46335,-122.22283 0.41743,-136.53065 -6.81067,-31.99229 -40.68979,-49.82269 -60.69902,-53.63552 -17.23158,-3.28354 -73.77362,-10.15388 -73.19905,-23.54169 0.7226,-16.83723 54.17506,-20.66018 93.9439,-65.53448 13.89524,-15.67909 33.12123,-73.94471 43.4996,-74.61861 12.15875,-0.78952 53.38261,-36.66894 57.37774,-73.39475 5.81638,-53.46786 -13.09882,-80.71918 -22.72518,-84.02742 -7.16586,-2.46266 -0.21443,-109.48196 -14.33645,-140.6405 -7.01919,-15.48698 -41.70427,-88.60677 -48.21918,-88.1632 -11.48896,0.78223 -57.99065,-58.34008 -69.85892,-57.76967 -8.71403,0.41881 -58.98786,-38.899119 -69.87818,-36.921369 -13.63295,2.47582 -44.79521,-15.09015 -55.00799,-13.28779 -11.26038,1.98725 -44.63631,26.501949 -53.58075,24.705549 -11.02356,-2.21397 -44.78659,40.71436 -60.58284,38.08094 -19.86465,-3.31168 -51.62538,51.14141 -60.66187,49.9888 -33.05797,-4.21656 -67.74439,107.56951 -78.16989,141.03634 -8.28462,26.59439 7.90397,82.63959 0.64381,85.55892 -14.41734,5.79725 -29.80861,36.45563 -31.47475,63.40697 -2.16159,34.96552 18.99386,94.05528 54.82675,93.78513 8.78201,-0.0662 19.97528,48.96802 50.95836,80.08469 60.01484,60.27361 115.22845,39.74146 115.55785,60.14185 0.24793,15.35528 -98.08283,23.95898 -128.39259,43.96603 -50.80121,33.53319 -62.64716,119.53759 -46.64155,160.44594 z"
     id="path46574"
     inkscape:label="backdrop"
     sodipodi:nodetypes="ssssssssssssssssssssssssssss" />
  <path
     style="fill:#ffd5ad;fill-opacity:1;stroke:#000000;stroke-width:10;stroke-dasharray:none;stroke-opacity:1"
     d="m 673.46891,289.21476 c 43.79384,38.41404 59.48039,45.57239 55.82233,131.57157 -0.92666,21.59757 -0.0397,38.26757 -0.87617,52.98873 -0.44837,7.8914 0.8678,-23.86169 2.49768,-25.49404 5.09807,-5.10578 29.57983,-19.06239 41.85173,-10.53598 11.13431,7.73602 17.02597,20.74722 17.17597,42.49726 0.15,21.75004 -6.96333,38.40721 -13.51522,48.30909 -6.46075,9.76414 -28.06352,22.04849 -35.62208,23.36709 -4.53741,0.79156 -9.58729,-1.07155 -9.90907,-4.88449 -0.57587,-6.82377 0.54228,-1.36703 -1.50284,6.95234 -2.70389,10.99918 -14.04999,42.94999 -28.7,63.5 -14.65001,20.55001 -40.14759,42.22249 -54.879,51.29158 -17.14233,10.55332 -34.39091,14.35638 -51.021,17.90842 -14.95002,3.10001 -22.05633,1.87966 -18.5891,2.05343 11.3252,0.5676 13.08489,-1.61783 13.01087,0.94777 0.24367,16.10772 1.44902,24.13322 0.71952,39.01845 -1.37704,28.09815 -95.53557,22.26545 -94.96132,5.26084 0.68566,-20.30373 0.62442,-42.64326 1.12206,-46.92632 0.40068,-3.44853 20.94001,-0.96538 16.09229,-1.25003 -7.45802,-0.43791 -5.54432,-1.00414 -23.59432,-1.00414 -18.05,0 -51.04997,-7.69998 -77.1,-20.5 -26.05004,-12.80002 -32.35,-16.9 -44,-28 -11.65,-11.1 -27.4,-37.69999 -32.2,-51 -4.8,-13.30001 -4.28682,-13.13982 -4.81671,-20.1 -0.73638,-9.67253 -1.40409,-24.21911 -1.10128,-20.94024 0.53515,5.7945 -4.09191,9.54656 -9.71142,9.20004 -11.38292,-0.70191 -23.85461,-6.79923 -32.9,-16.6 -7.75255,-8.39997 -15.89554,-25.18218 -15.89554,-42.28218 0,-17.1 2.37673,-37.11295 13.39554,-46.01782 8.97268,-7.25128 20.56083,-9.29199 27.4,-7.5 5.55735,1.45613 15.21166,6.34846 16.5,13.4 1.08482,5.93762 1.23068,13.90973 0.59696,27.27198 -0.42363,8.93221 0.78038,-19.1839 1.22232,-33.80674 0.26179,-8.66204 -3.02551,-11.79366 -2.77551,-30.8937 0.25,-19.10004 6.68204,-49.25031 11.83224,-56.80061 57.84539,-93.67731 253.7694,-137.38352 334.43107,-71.0023 z"
     id="path315"
     inkscape:label="face"
     sodipodi:nodetypes="ccsssssssssscscssssssssssssssssssscc" />
  <path
     style="opacity:0.25;fill:#d2943c;fill-opacity:1;stroke:#000000;stroke-width:0;stroke-dasharray:none;stroke-opacity:1"
     d="m 563.60805,681.0488 c 1.44668,8.75533 53.27289,-3.51247 61.97145,-7.92666 21.7969,-11.0611 25.03625,-12.17941 43.23137,-28.4 17.92305,-15.97804 36.0834,-34.60427 51.33343,-78.40485 2.28882,-6.57387 5.26135,-16.37081 5.06112,-21.72639 -0.11027,-2.94922 2.38112,-5.07068 4.53695,-5.14627 4.22933,-0.14831 5.32333,3.51341 5.32909,3.75102 0.0349,1.44035 -0.0784,3.85692 0.98032,4.06811 3.73379,0.74479 4.78575,0.56202 15.31019,-4.92104 34.39222,-17.91778 35.54468,-57.65062 31.62198,-77.70878 -2.31474,-11.83609 -10.91045,-26.34946 -24.63949,-23.75245 -14.61887,2.76534 -19.46955,8.06489 -23.71007,10.83729 -0.57171,4.90729 -1.71336,19.35613 -1.9852,25.39221 -0.0675,1.49923 -2.51604,3.44959 -5.10728,3.29076 -3.49694,-0.25527 -4.63201,-3.29117 -4.65802,-5.14561 -0.13533,-9.64723 1.26407,-31.30494 0.67727,-45.36845 -0.74851,-17.9387 9.43951,-59.33495 3.81538,-64.21579 -4.42667,-3.84163 -70.73158,-60.90479 -96.71032,-68.70023 -15.03273,-4.51087 -163.52426,-19.54352 -122.07178,-20.57642 42.46489,-1.05813 -107.07125,50.22178 -111.56334,53.85084 -8.62066,6.96447 -54.70411,31.13912 -63.97106,44.74513 -8.98367,13.19009 13.57668,0.85464 69.59841,-21.92608 31.45585,-12.79122 64.21997,-31.27816 66.72999,-33.4775 5.99194,-5.25029 33.90738,-8.09318 47.84161,-12.87165 4.15528,-1.42497 18.68095,-4.28399 20.37359,-8.34665 1.03415,-2.48215 37.11129,26.31508 75.04927,24.67749 1.2232,-0.0528 8.09442,-1.92507 10.71066,1.31383 7.9809,9.88036 65.46366,40.82807 87.14973,46.73304 20.38448,5.55056 3.14305,37.58113 5.98727,110.22685 0.29863,7.62748 19.4472,16.47724 29.82492,-15.29106 0.65038,-1.99095 36.69689,-10.69259 12.16296,35.13012 -7.79426,14.55757 -14.06417,51.01693 -28.27526,28.11936 -7.93678,-12.78811 -22.0225,43.21249 -35.09249,67.61199 -14.852,27.7262 -43.95349,47.30987 -60.288,58.39926 -22.83618,15.50334 -73.32146,13.06869 -71.22465,25.75858 z"
     id="path42494"
     sodipodi:nodetypes="ssssssssssscscsssssssssssssssssssss"
     inkscape:label="shadow1" />
  <path
     style="opacity:0.25;fill:#d2943c;fill-opacity:1;stroke:#000000;stroke-width:0;stroke-dasharray:none;stroke-opacity:1"
     d="m 578.70464,693.83277 c 0.81289,0.0521 1.83582,0.004 5.59725,-0.1218 0.1522,7.68992 2.45164,21.60294 -2.19272,21.22841 -8.55154,-0.68962 -8.5543,-21.43682 -3.40453,-21.10661 z"
     id="path42702"
     sodipodi:nodetypes="scss"
     inkscape:label="shadow2" />
  <path
     style="fill:#e6e6e6;fill-opacity:1;stroke:#000000;stroke-width:10;stroke-miterlimit:4;stroke-dasharray:none;stroke-opacity:1"
     d="m 326.75848,813.88405 c -21.47705,54.32688 -21.27037,85.60328 -6.45581,98.34264 11.46009,9.8548 70.80701,22.215 73.13913,17.0348 4.40926,-9.794 6.09294,-45.45032 8.0724,-59.38819 1.94926,-13.72523 -1.39145,36.57783 -6.15544,59.75169 -1.39314,6.7767 69.53202,-4.918 120.10976,-16.6032 55.51701,-12.82626 118.14433,1.69842 135.04429,-6.35984 9.99425,-4.7655 8.76686,-55.31158 8.82872,-52.0575 0.21327,11.2179 -0.73986,42.0229 -4.94935,48.4573 -6.1391,9.38396 17.51281,7.08757 43.81798,10.74323 31.52766,4.38144 33.35857,14.03822 35.65224,-20.28454 3.15356,-47.1903 -5.49927,-76.56799 -8.37328,-88.58122 -5.36429,-22.42254 -19.22893,-36.56412 -56.92581,-44.64285 -30.69113,-6.57735 -75.28791,-11.05764 -75.61351,-18.03914 -0.29163,-6.25295 -1.50112,-8.4246 -0.87582,-30.94047 0.43992,-15.84196 -21.06441,-4.58039 -49.12251,-3.88474 -23.18526,0.57484 -51.56727,-10.49842 -51.83935,-2.98862 -0.89833,24.79549 -0.52543,37.04505 -3.23079,38.55903 -16.33326,9.14046 -70.82862,13.25192 -102.00784,23.13899 -29.3521,9.30768 -48.26831,21.67586 -59.11501,47.74263 z"
     id="path1831"
     inkscape:label="body"
     sodipodi:nodetypes="cssssssssssssssssssc" />
  <path
     style="opacity:0.25;fill:#d2943c;fill-opacity:1;stroke:#000000;stroke-width:0;stroke-dasharray:none;stroke-opacity:1"
     d="m 295.8287,477.55607 c 1.13717,-1.15071 3.10148,-3.25077 5.75163,-3.21136 0.80789,-0.0267 4.23289,1.02872 5.32125,1.09437 0.86911,0.10934 -7.02018,12.6456 -0.88373,42.33682 -3.93838,-6.25813 -4.3499,-6.77923 -5.5729,-9.12818 -0.67128,-1.28927 -5.79076,-9.16806 -5.69306,-22.60781 0.0172,-2.37143 0.0183,-7.41269 1.07681,-8.48384 z"
     id="path50345"
     sodipodi:nodetypes="scccsss"
     inkscape:label="shadow4" />
  <path
     d="m 563.39124,610.28633 c -17.1,6 -28.1,7.1 -50,5.2 -2.1,-0.2 -2.5,0.3 -2.8,2.8 -0.5,4.9 2.9,7.3 12.3,8.6 12.7,1.7 31.9,-1 48,-6.8 7.2,-2.6 8,-3.2 8.3,-5.7 0.4,-2.9 -3,-7.7 -5.2,-7.5 -0.6,0.1 -5.4,1.6 -10.6,3.4 z"
     id="path30"
     inkscape:label="mouth"
     style="fill:#000000;stroke:none;stroke-width:0.1" />
  <path
     d="m 529.09124,497.48633 c -1.9,2.2 -3.2,11.6 -2.3,16.7 0.8,4.1 7.3,11.6 10.1,11.6 1.2,0 1.5,-0.5 1,-1.8 -3.9,-9 -4,-9.5 -2.1,-17.6 2,-8.2 1.7,-9.1 -2.4,-10.1 -1.8,-0.4 -3.1,-0.1 -4.3,1.2 z"
     id="path28"
     inkscape:label="nose"
     style="fill:#000000;stroke:none;stroke-width:0.1" />
  <path
     d="m 557.93455,752.18208 c 0.18854,-3.87881 -21.98674,-1.57769 -30.03696,-2.55133 -9.52307,-1.15178 -25.46159,-6.26477 -27.6676,-0.60963 -3.45521,8.85742 57.27159,12.0667 57.70456,3.16096 z"
     id="path28-5"
     inkscape:label="nose"
     style="fill:#000000;stroke:none;stroke-width:0.1"
     sodipodi:nodetypes="ssss" />
  <path
     d="m 508.7013,700.83309 c -4.82805,-0.10241 -3.2348,14.0231 -3.88962,20.63584 -0.6794,6.86091 -3.32658,20.39704 -0.23069,20.43372 5.41395,0.0641 5.47215,-9.95262 6.1751,-20.07354 0.71253,-10.26484 3.57285,-20.87664 -2.05479,-20.99602 z"
     id="path28-5-1"
     inkscape:label="nose"
     style="fill:#000000;stroke:none;stroke-width:0.0846781"
     sodipodi:nodetypes="sssss" />
  <path
     d="m 521.68263,703.59863 c -4.82805,-0.10241 -3.2348,14.0231 -3.88962,20.63584 -0.6794,6.86091 -3.32658,20.39704 -0.23069,20.43372 5.41395,0.0641 5.47215,-9.95262 6.1751,-20.07354 0.71253,-10.26484 3.57285,-20.87664 -2.05479,-20.99602 z"
     id="path28-5-1-6"
     inkscape:label="nose"
     style="fill:#000000;stroke:none;stroke-width:0.0846781"
     sodipodi:nodetypes="sssss" />
  <path
     d="m 534.07873,705.28357 c -4.82805,-0.10241 -3.2348,14.0231 -3.88962,20.63584 -0.6794,6.86091 -3.32658,20.39704 -0.23069,20.43372 5.41395,0.0641 5.47215,-9.95262 6.1751,-20.07354 0.71253,-10.26484 3.57285,-20.87664 -2.05479,-20.99602 z"
     id="path28-5-1-8"
     inkscape:label="nose"
     style="fill:#000000;stroke:none;stroke-width:0.0846781"
     sodipodi:nodetypes="sssss" />
  <path
     d="m 547.83938,705.11127 c -4.82805,-0.10241 -3.2348,14.0231 -3.88962,20.63584 -0.6794,6.86091 -3.32658,20.39704 -0.23069,20.43372 5.41395,0.0641 5.47215,-9.95262 6.1751,-20.07354 0.71253,-10.26484 3.57285,-20.87664 -2.05479,-20.99602 z"
     id="path28-5-1-5"
     inkscape:label="nose"
     style="fill:#000000;stroke:none;stroke-width:0.0846781"
     sodipodi:nodetypes="sssss" />
  <path
     d="m 561.84847,703.50573 c -4.82805,-0.10241 -3.2348,14.0231 -3.88962,20.63584 -0.6794,6.86091 -3.32658,20.39704 -0.23069,20.43372 5.41395,0.0641 5.47215,-9.95262 6.1751,-20.07354 0.71253,-10.26484 3.57285,-20.87664 -2.05479,-20.99602 z"
     id="path28-5-1-85"
     inkscape:label="nose"
     style="fill:#000000;stroke:none;stroke-width:0.0846781"
     sodipodi:nodetypes="sssss" />
  <path
     d="m 575.50625,701.96327 c -4.82805,-0.10241 -3.2348,14.0231 -3.88962,20.63584 -0.6794,6.86091 -3.32658,20.39704 -0.23069,20.43372 5.41395,0.0641 5.47215,-9.95262 6.1751,-20.07354 0.71253,-10.26484 3.57285,-20.87664 -2.05479,-20.99602 z"
     id="path28-5-1-3"
     inkscape:label="nose"
     style="fill:#000000;stroke:none;stroke-width:0.0846781"
     sodipodi:nodetypes="sssss" />
  <path
     d="m 434.89124,456.88633 c -8.7,2.5 -13.4,10.6 -15.4,26.4 -2.2,16.8 3.2,35.7 12.2,42.9 7.8,6.3 18.4,2.9 23,-7.3 3,-6.6 3.5,-25.1 1.2,-39.2 -2.5,-14.7 -5,-19.1 -12.8,-22.4 -4.1,-1.7 -4,-1.7 -8.2,-0.4 z"
     id="path20"
     inkscape:label="eye1"
     style="fill:#000000;stroke:none;stroke-width:0.1" />
  <path
     d="m 619.89124,459.58633 c -4.2,2.6 -5,3.8 -7.5,11.2 -1.8,5.4 -2.2,8.6 -2.1,18.9 0.1,15.5 1.7,21.6 7.2,27.6 6.4,6.9 16.3,7.9 21.7,2.3 1.1,-1.3 3.6,-5.5 5.4,-9.3 3.2,-6.8 3.3,-7.4 3.3,-20 0,-13.7 -1.3,-19.4 -5.7,-25.8 -4.4,-6.2 -16,-8.7 -22.3,-4.9 z"
     id="path22"
     inkscape:label="eye2"
     style="fill:#000000;stroke:none;stroke-width:0.1" />
  <path
     d="m 436.39124,401.28633 c -9.2,2 -24.9,10.2 -25.7,13.3 -0.7,2.9 2.5,7.6 5.5,8 1.1,0.2 6,-1.7 10.9,-4.1 9.5,-4.8 16.5,-6.7 24.4,-6.7 6,0 10.1,1.6 17.9,7.1 5,3.5 6.2,4 7.5,2.9 4.7,-3.9 -1.7,-13 -13.3,-18.9 -5.7,-2.9 -18.2,-3.6 -27.2,-1.6 z"
     id="path16"
     inkscape:label="brow1"
     style="fill:#000000;stroke:none;stroke-width:0.1" />
  <path
     d="m 611.39124,401.48633 c -1.4,0.2 -6.1,2.3 -10.5,4.6 -6.7,3.6 -8.1,4.7 -8.3,7.1 -0.5,3.6 2.2,7.6 5.1,7.6 1.3,0 5.9,-1.9 10.3,-4.1 7.7,-4 8.1,-4.1 15.9,-3.6 5.7,0.3 11.2,1.5 18.8,4.2 5.9,2 11.4,3.4 12.2,3.1 2.1,-0.8 1.8,-4.9 -0.5,-7.9 -2.3,-2.9 -13.8,-7.6 -24.7,-10.1 -6.8,-1.5 -12.6,-1.8 -18.3,-0.9 z"
     id="path18"
     inkscape:label="brow2"
     style="fill:#000000;stroke:none;stroke-width:0.1" />
  <path
     d="m 752.84799,458.93455 c -7.7,4.1 -9.2,7 -5.9,11.7 2,2.9 3.8,2.8 10,-0.5 4.7,-2.4 5.4,-2.6 8.4,-1.3 3.2,1.3 3.2,1.4 2.8,6.9 -0.7,8.9 -6.9,20.1 -18.9,33.9 -3.7,4.2 -3.8,8.3 -0.3,11.1 3.4,2.7 5,2.6 6.5,0 0.6,-1.2 4.5,-6.6 8.6,-12 8.2,-10.8 12.3,-19.6 13,-27.9 1.2,-12.8 -4.9,-21.4 -16.7,-23.5 -2.6,-0.4 -4.6,0 -7.5,1.6 z"
     id="path24"
     inkscape:label="ear2"
     style="fill:#000000;stroke:none;stroke-width:0.1" />
  <path
     d="m 296.23177,463.81653 c -7.1,1.2 -10.5,7.1 -10.5,18.4 0,11.1 1.5,17.2 6.5,27.3 8,16.2 17.5,24.2 16.5,14 -0.1,-1.1 -2.2,-5.1 -4.7,-8.9 -6.5,-9.7 -9.3,-18.2 -9.3,-28.3 0,-7.7 0.2,-8.3 2.7,-10.3 1.9,-1.5 3.5,-2 5.3,-1.5 8.6,2.2 10.1,1.5 8.1,-3.8 -1.7,-4.3 -9.2,-7.9 -14.6,-6.9 z"
     id="path26"
     inkscape:label="ear1"
     style="fill:#000000;stroke:none;stroke-width:0.1" />
  <path
     style="opacity:1;fill:#ffbd58;fill-opacity:1;stroke:#000000;stroke-width:10;stroke-dasharray:none;stroke-opacity:1"
     d="m 543.04491,121.25664 c 4.30738,3.01845 14.81345,6.77222 22.46359,10.27229 7.65014,3.50007 10.94992,4.84999 19.1,5.2 8.15008,0.35 9.24999,-0.3 11.5,-2.7 2.25001,-2.4 2.1116,-4.80495 4.5,-3.1 1.22085,0.8715 26.04997,19.74996 30.4,24.5 4.35003,4.75004 18.39426,15.91272 20.73424,17.6761 6.76877,5.10086 12.217,2.56148 11.76576,-6.6761 -0.15466,-3.16622 1.6367,-2.15331 9.8,7.1 11.57078,13.11578 18.24844,24.67841 24.8,37.60001 3.99772,7.66414 5.0648,28.16177 8.53835,33.29259 9.34151,13.99483 6.57553,-28.01783 17.2595,-6.69644 7.56311,15.09327 23.88528,46.39635 31.10215,71.30385 6.28635,21.696 8.37495,44.55732 8.25838,66.36388 -0.12948,24.22244 -2.92399,43.17103 -5.42244,59.97594 -8.32902,1.02668 -12.34599,2.87433 -28.67599,13.96511 0.18821,-36.38438 -2.07681,-59.00268 -7.49234,-71.88967 -14.40533,-20.57263 -41.27206,-32.07805 -62.59566,-48.05221 -10.73926,-8.04512 -29.62491,-18.87562 -33.88409,-23.60114 -4.59176,-5.09452 -12.44068,-16.07736 -13.28029,-25.99865 -0.62402,-7.37367 1.19405,15.89564 8.89664,24.05572 2.99068,3.16831 -19.75495,-3.09952 -27.3589,-4.12539 -8.25273,-1.1134 -15.82946,-3.33624 -23.1,-5.8 -12.87131,-4.45963 -34.38062,-14.98767 -28.94843,-20.67375 6.44778,-6.74915 11.44842,-21.02613 12.14843,-30.52625 0.70001,-9.50012 -3.23972,-20.55738 -1.33063,-12.04954 1.47464,6.57174 0.0408,17.44024 -1.02969,23.03986 -4.25335,22.24949 -27.5396,34.00966 -45.23968,38.00968 -17.07397,3.0788 -35.16483,14.33943 -34.4456,5.76277 0.40835,-4.86938 -13.90327,-23.98799 -10.51904,-19.3938 2.53734,3.44451 11.0828,16.22306 7.48058,21.63578 -25.55697,16.60363 -59.18169,27.33196 -82.26125,45.20166 -26.54734,20.55468 -37.45116,19.15173 -51.74195,48.63158 -5.85975,12.08782 -3.25421,46.59111 -5.38247,57.63889 -3.5655,-6.17123 -17.78756,-10.81225 -23.53105,-10.9865 -7.76722,-35.70752 -4.26157,-79.02851 -0.16387,-106.13971 2.28427,-15.11319 9.50095,-24.14437 15.30095,-45.14437 5.8,-21 16.13265,-45.65203 22.41839,-55.99989 6.32157,-10.40686 6.17963,-5.96111 5.60475,-1.70908 -0.65495,4.84423 2.45736,8.5873 4.68905,7.34026 7.28768,-4.07224 18.57987,-12.03371 26.2062,-22.13118 7.25001,-9.65001 13.39994,-17.34992 16.8,-21.4 3.40006,-4.05008 7.74998,-9.74998 9.7,-12.70001 1.95002,-2.95003 4.89334,-7.76321 5.51922,-9.34381 2.12352,-5.36279 3.81305,5.50009 5.48078,8.04381 4.44926,6.78629 13.15919,1.07077 15.4,-0.7 5.75319,-4.54638 38.84061,-38.58505 42.7,-41.6 8.75797,-6.84172 6.2556,-5.0848 8.7,-0.59782 1.83857,3.37491 6.5998,2.9979 11.4,1.19782 4.8002,-1.80008 13.64998,-7.94998 25.9,-16.7 20.49136,-15.11456 6.51191,-12.11112 21.83641,-1.37229 z"
     id="path313"
     inkscape:label="hair"
     sodipodi:nodetypes="sssssssssccssscccssssscsssscsscssccssssscsssssssscs" />
  <path
     style="opacity:0.5;fill:#ffd28e;fill-opacity:1;stroke:#000000;stroke-width:0;stroke-dasharray:none;stroke-opacity:1"
     d="m 307.08967,362.88246 c -2.01494,24.70247 -1.22765,52.153 2.62581,72.77734 6.01954,1.461 10.65822,3.50031 15.29784,5.51819 -0.007,-11.41547 0.0541,-37.94191 3.83102,-47.0619 3.52088,-7.5689 4.63028,-9.91065 10.22071,-18.36719 -10.87444,-3.39333 -18.46706,-6.59723 -31.97538,-12.86644 z"
     id="path52609"
     sodipodi:nodetypes="cccccc"
     inkscape:label="light1" />
  <path
     style="opacity:0.5;fill:#ffd28e;fill-opacity:1;stroke:#000000;stroke-width:0;stroke-dasharray:none;stroke-opacity:1"
     d="m 726.09967,374.9683 c 8.55961,-4.14766 24.47926,-9.18878 32.05777,-12.19708 -0.4907,43.63057 -1.64843,45.07553 -4.68522,68.27149 -4.71175,0.36465 -13.12497,4.89758 -19.28579,8.93016 -0.0307,-6.16638 -0.32513,-30.15994 -3.21151,-47.52446 -1.19926,-5.96056 -2.95544,-12.68942 -4.87525,-17.48011 z"
     id="path52668"
     sodipodi:nodetypes="cccccc"
     inkscape:label="light2" />
  <path
     style="opacity:0.25;fill:#cc8100;fill-opacity:1;stroke:#000000;stroke-width:0;stroke-dasharray:none;stroke-opacity:1"
     d="m 629.3109,302.70224 c -9.68577,-10.56158 -15.46587,-23.8677 -8.16724,-27.50275 4.09633,-2.04016 11.94414,24.83859 26.98082,27.95697 19.3392,4.01064 60.32101,36.0164 50.03404,44.99786 -2.4767,2.16239 -26.20383,-15.77137 -34.19815,-21.56796 -7.69107,-5.5767 -32.21818,-21.23298 -34.64947,-23.88412 z"
     id="path52668-3"
     sodipodi:nodetypes="ssssss"
     inkscape:label="shadow5" />
  <path
     style="opacity:0.25;fill:#cc8100;fill-opacity:1;stroke:#000000;stroke-width:0;stroke-dasharray:none;stroke-opacity:1"
     d="m 556.23144,282.42196 c -3.61922,-2.043 -6.7079,-3.44999 -10.10748,-6.86842 2.47928,-3.08373 1.98477,-2.24568 4.53687,-6.74366 19.02705,13.14782 52.67499,19.86406 57.74759,18.36437 1.09903,4.3868 0.90271,4.30214 3.38359,11.21533 -4.26952,-1.21569 -26.78834,-4.92629 -35.54113,-7.82178 -6.81135,-2.25325 -16.29774,-6.04499 -20.01944,-8.14584 z"
     id="path52668-3-6"
     sodipodi:nodetypes="sccccss"
     inkscape:label="shadow6" />
  <path
     style="opacity:0.25;fill:#cc8100;fill-opacity:1;stroke:#000000;stroke-width:0;stroke-dasharray:none;stroke-opacity:1"
     d="m 547.18837,245.62304 c 0.45592,15.36414 -11.65633,33.73991 -38.54358,40.09498 -15.69974,3.71079 -22.21907,7.00499 -32.28385,9.62904 -0.70652,-2.56418 -0.86103,-2.83918 -2.27685,-5.64198 6.69288,-4.27916 16.4837,-11.09454 31.70143,-14.12966 35.21969,-7.02442 34.10695,-53.99006 39.49086,-48.87465 4.59135,4.36237 1.74293,16.59807 1.91199,18.92227 z"
     id="path52668-3-6-7"
     sodipodi:nodetypes="csccssc"
     inkscape:label="shadow7" />
  <path
     style="opacity:0.25;fill:#cc8100;fill-opacity:1;stroke:#000000;stroke-width:0;stroke-dasharray:none;stroke-opacity:1"
     d="m 429.4534,311.29292 c -4.6114,-8.64921 24.77749,-14.39312 31.03593,-24.81178 1.86573,3.24024 3.6526,6.75156 3.833,9.96183 -2.76774,1.69488 -32.36086,19.55414 -34.86893,14.84995 z"
     id="path52668-3-6-7-5"
     sodipodi:nodetypes="cccc"
     inkscape:label="shadow8" />
  <path
     style="opacity:0.25;fill:#cc8100;fill-opacity:1;stroke:#000000;stroke-width:0;stroke-dasharray:none;stroke-opacity:1"
     d="m 528.87516,153.55121 c 6.77213,7.05279 13.9015,10.05797 26.53578,15.04665 12.29392,6.07048 19.2378,7.46473 26.1029,7.33186 11.42625,0.72163 11.80862,-3.05759 14.33681,-4.80329 15.38376,11.64361 20.03722,15.7168 27.555,22.35937 10.75553,9.50339 23.13463,22.15953 32.03418,21.29912 3.35353,-0.21274 6.06942,-3.64027 7.47292,-6.23775 12.39066,13.85118 27.62052,35.58176 28.80629,47.56303 3.06208,16.36083 5.65586,30.91485 14.06339,30.42292 6.21482,-0.36363 7.70631,-6.31111 9.30132,-12.23078 5.2502,10.72913 18.87869,37.27719 24.84144,53.64021 -13.22789,-7.24 -23.59975,-28.94048 -30.92559,-25.78255 -29.40731,12.67655 -32.26176,-74.36575 -53.34661,-70.68036 -12.33692,2.15635 -54.53054,-47.25821 -60.89728,-43.68118 -21.01748,11.80825 -47.66768,-11.36047 -61.65607,-16.28953 -9.69233,-3.41528 -33.10166,17.4901 -46.52613,15.92951 -7.8343,-0.91074 -55.95262,48.50261 -65.27168,46.41487 -20.28685,-4.54485 -49.38493,57.63819 -68.53564,52.4143 -12.77607,-3.48503 -33.46696,47.09427 -34.74434,48.34475 3.91047,-18.35847 16.26856,-48.89702 22.96541,-61.21909 3.87767,6.58532 9.80361,4.73653 17.04516,-0.37723 11.49784,-8.11942 25.27693,-24.9402 31.59373,-32.86632 9.50103,-11.9216 12.6369,-14.81498 18.08345,-23.68777 2.6094,4.7889 7.25787,8.10486 13.80738,6.73871 7.09468,-1.47987 13.84899,-8.60131 19.74609,-14.17227 8.81169,-8.24391 26.44177,-27.43958 34.32144,-33.4508 8.48155,9.78055 21.1227,1.38432 32.76117,-6.50559 9.59343,-6.50355 16.45984,-12.1418 20.52948,-15.52079 z"
     id="path313-9"
     inkscape:label="shadow9"
     sodipodi:nodetypes="ccccscccsccsssssssccsscsccsc"
     class="UnoptimicedTransforms"
     transform="translate(4.3912354,-34.213669)" />
  <path
     d="m 534.57161,514.19101 c 1.69227,11.92119 14.58271,23.52018 15.70167,-1.54233 0.9933,-22.24783 -11.91383,-12.45194 -13.39137,-11.65663 -0.59605,4.1056 -1.98944,7.04089 -2.3103,13.19896 z"
     id="path28-3"
     inkscape:label="shadow14"
     style="opacity:0.25;fill:#d2943c;fill-opacity:1;stroke:none;stroke-width:0.1"
     sodipodi:nodetypes="cscc" />
  <path
     style="opacity:0.5;fill:#ffd28e;fill-opacity:1;stroke:#000000;stroke-width:0;stroke-dasharray:none;stroke-opacity:1"
     d="m 633.10015,290.74832 c -6.7218,-9.78254 -12.60847,-16.26456 -6.65667,-19.41532 8.0983,-4.28707 16.53801,20.99789 31.57469,24.11627 19.3392,4.01064 47.34938,24.26651 40.35941,33.271 -3.20332,4.12654 -25.8052,-14.32238 -33.89613,-18.75753 -19.67999,-10.78785 -20.82342,-3.8491 -31.3813,-19.21442 z"
     id="path52668-3-3"
     sodipodi:nodetypes="ssssss"
     inkscape:label="light3" />
  <path
     style="opacity:0.5;fill:#ffd28e;fill-opacity:1;stroke:#000000;stroke-width:0;stroke-dasharray:none;stroke-opacity:1"
     d="m 550.65289,268.8675 c 1.7396,-3.14348 2.45213,-4.17756 4.43408,-9.80919 9.81861,5.36486 33.70346,15.64359 52.31207,16.95327 -1.35879,2.60466 -0.0761,7.54 1,11.27807 -4.34755,0.63223 -19.35414,-2.1721 -31.54242,-6.15753 -12.69584,-4.15139 -22.20248,-9.61566 -26.20373,-12.26462 z"
     id="path52668-3-6-5"
     sodipodi:nodetypes="ccccsc"
     inkscape:label="light4" />
  <path
     style="opacity:0.5;fill:#ffd28e;fill-opacity:1;stroke:#000000;stroke-width:0;stroke-dasharray:none;stroke-opacity:1"
     d="m 509.4312,274.54725 c -15.62757,3.77783 -22.13278,6.62548 -35.33483,15.13205 -1.57229,-2.88743 -1.71462,-2.94084 -3.54599,-5.63883 4.93324,-3.49377 14.01682,-13.43488 31.02976,-17.55453 34.90461,-8.45208 22.54965,-49.27215 34.79314,-43.8734 11.43593,5.04265 -2.77004,46.09133 -26.94208,51.93471 z"
     id="path52668-3-6-7-6"
     sodipodi:nodetypes="sccsss"
     inkscape:label="light5" />
  <path
     style="opacity:0.5;fill:#ffd28e;fill-opacity:1;stroke:#000000;stroke-width:0;stroke-dasharray:none;stroke-opacity:1"
     d="m 426.68038,303.62082 c -3.08857,-5.24579 11.42552,-9.41156 15.3279,-14.26328 12.4142,-15.43426 15.76386,-7.4588 18.47705,-2.8942 -7.40007,10.33317 -32.90646,18.68353 -33.80495,17.15748 z"
     id="path52668-3-6-7-5-2"
     sodipodi:nodetypes="sscs"
     inkscape:label="light6" />
  <path
     d="m 309.8639,387.4087 c 0,0.8 1.7,2.2 3.8,3 2,0.8 4.7,2 6,2.6 2.5,1.3 4.6,0.1 3.4,-1.9 -0.7,-1.1 -10.3,-5.3 -12.2,-5.3 -0.6,0 -1,0.7 -1,1.6 z"
     id="path6"
     inkscape:label="hair1"
     style="fill:#000000;stroke:none;stroke-width:0.1" />
  <path
     d="m 309.0639,405.9087 c 0.4,1.2 8.1,5.7 10.1,5.8 0.4,0.1 0.7,-0.8 0.7,-1.9 0,-2.1 -2.6,-3.6 -8.4,-4.7 -2.2,-0.5 -2.8,-0.3 -2.4,0.8 z"
     id="path10"
     inkscape:label="hair2"
     style="fill:#000000;stroke:none;stroke-width:0.1" />
  <path
     d="m 308.8639,422.2087 c 0,1.4 10.1,8.6 12.1,8.6 2.7,0 -0.1,-3.7 -5.1,-6.7 -6.1,-3.7 -7,-3.9 -7,-1.9 z"
     id="path14"
     inkscape:label="hair3"
     style="fill:#000000;stroke:none;stroke-width:0.1" />
  <path
     d="m 742.57734,379.07541 c -4.6,2.3 -6,4.6 -3.7,5.9 1.6,1 13.70528,-5.52736 13.40528,-7.32736 -0.5,-2.3 -4.60528,-1.27264 -9.70528,1.42736 z"
     id="path4"
     inkscape:label="hair4"
     style="fill:#000000;stroke:none;stroke-width:0.1"
     sodipodi:nodetypes="cccc" />
  <path
     d="m 742.57734,399.77541 c -4.1,2.4 -4.2,2.5 -2.8,4.7 0.8,1.3 1.6,1.2 5.5,-1 2.7,-1.5 7.25529,-4.52814 7.25529,-5.52814 0,-2.4 -5.35529,-0.87186 -9.95529,1.82814 z"
     id="path8"
     inkscape:label="hair5"
     style="fill:#000000;stroke:none;stroke-width:0.1"
     sodipodi:nodetypes="cccsc" />
  <path
     d="m 742.97734,418.47541 c -4.4,3.1 -5.2,4.7 -2.8,5.6 2,0.8 13.57832,-6.09859 12.87832,-7.79859 -0.8,-2.2 -5.67832,-1.00141 -10.07832,2.19859 z"
     id="path12"
     inkscape:label="hair6"
     style="fill:#000000;stroke:none;stroke-width:0.1"
     sodipodi:nodetypes="cccc" />
</svg>
