<?xml version="1.0" encoding="UTF-8" standalone="no"?>
<svg
   version="1.1"
   id="Layer_1"
   x="0px"
   y="0px"
   viewBox="0 0 2560 450"
   enable-background="new 0 0 2614 709.44"
   xml:space="preserve"
   sodipodi:docname="city.svg"
   width="2560"
   height="450"
   inkscape:version="1.1.2 (0a00cf5339, 2022-02-04)"
   xmlns:inkscape="http://www.inkscape.org/namespaces/inkscape"
   xmlns:sodipodi="http://sodipodi.sourceforge.net/DTD/sodipodi-0.dtd"
   xmlns="http://www.w3.org/2000/svg"
   xmlns:svg="http://www.w3.org/2000/svg"><defs
   id="defs7" /><sodipodi:namedview
   id="namedview5"
   pagecolor="#505050"
   bordercolor="#ffffff"
   borderopacity="1"
   inkscape:pageshadow="0"
   inkscape:pageopacity="0"
   inkscape:pagecheckerboard="1"
   showgrid="false"
   inkscape:zoom="0.53404847"
   inkscape:cx="816.4053"
   inkscape:cy="385.73278"
   inkscape:window-width="1920"
   inkscape:window-height="1012"
   inkscape:window-x="0"
   inkscape:window-y="0"
   inkscape:window-maximized="1"
   inkscape:current-layer="Layer_1"
   height="450px" />
<path
   d="m 0,357.831 h 30.578 v 25.458 h 7.111 v -25.458 h 13.653 v -1.618 H 46.133 V 354.72 H 62.506 V 284.516 H 74.31 v -4.409 h -8.96 v -9.742 h 8.96 v -9.956 h 4.551 v -19.556 h 29.227 v 3.129 h -6.258 v 4.409 h 6.258 V 256 h 2.631 v 5.689 h 11.378 v 35.556 h 6.044 V 244.196 H 144 v -5.404 h 6.684 v -3.058 h -10.027 v -1.636 h 10.027 v -3.627 h -18.062 v -3.2 h 30.72 v -29.867 l 27.733,-61.938 v -18.987 h 1.991 v 19.129 l 23.538,60.8 v 60.515 h -2.347 v 46.364 h 12.516 l 5.831,-21.618 9.173,-11.947 4.231,4.231 v -18.524 h 0.889 v 10.596 h 5.547 v -9.529 h 1.28 v 18.418 l 5.262,31.36 h 16.569 v 34.418 h 4.622 v -92.515 h 3.271 v -122.24 l 11.52,-31.218 V 54.542 h 1.209 v 19.129 h 2.702 V 87.68 l 3.413,-5.404 v -7.894 l 5.262,-5.262 6.187,4.48 v 9.244 l 16.853,43.093 0.853,150.186 2.631,-4.551 3.84,5.404 v -17.422 l 1.849,0.142 v 9.956 h 4.551 v -9.529 h 1.564 v 21.404 h 4.196 v 24.533 h 38.187 v 73.458 h 6.4 V 119.467 h 15.431 v 42.809 l 5.227,-5.227 h 6.507 l 7.182,36.018 c 0,0 9.031,5.689 3.342,16.071 v 8.249 h 8.178 v 3.484 h 16.711 v 51.769 h 8.391 l 6.4,-140.942 h 12.089 v -26.88 h 2.276 v -5.262 h 55.182 v -16.64 h 1.991 v 9.813 h 1.92 v 3.484 h 0.853 v -3.2 h 1.351 v -2.062 h 3.2 V 92.8 h 1.707 v 7.182 h 22.187 v 3.271 h 2.987 v 26.738 h 10.24 v 26.596 h 42.453 v 61.084 h 1.209 c 0,0 0.284,-6.187 12.089,-6.187 v -63.36 l 7.111,-22.116 v -4.053 c 0,0 2.56,-3.982 6.542,0 v 4.48 h 1.493 v -14.649 h 2.702 v 19.484 l 5.902,16.853 v 61.795 c 0,0 12.231,1.138 16.782,5.689 v 35.769 h 11.52 v -26.667 c 0,0 -1.138,-12.48 12.48,-12.48 v -13.618 h 3.022 v 13.618 c 0,0 12.48,0.107 12.48,12.48 v 24.604 h 5.938 v 1.493 h 8.533 v 4.267 h -3.2 v 84.764 h 7.751 v 6.329 h 2.418 v 10.169 h 5.333 v 19.271 h 1.707 v -1.991 h 6.116 v -4.551 h 23.538 c 0,0 1.28,6.827 4.053,6.827 h 16 v 18.276 l 12.089,5.12 v -90.098 h 14.933 l 12.373,21.973 V 223.431 h 28.587 v 68.338 l 20.124,-31.858 v -7.324 h 1.564 v 6.116 h 1.778 v -4.48 h 1.707 v 68.053 l 13.867,18.844 2.987,-4.622 h 5.831 v -73.102 h 5.689 V 236.8 h 17.067 v -2.987 h 2.773 v 3.2 h 7.893 v 2.204 h 2.276 v -4.409 l 6.4,-7.893 v -28.018 h 1.92 v -11.733 h 8.391 v 11.591 h 5.689 v -6.684 h 27.591 v 8.533 h 15.004 v 104.675 l 11.164,1.849 v -14.791 h 37.049 v -25.102 h 7.751 v -21.404 h 3.698 v -8.96 h 4.125 V 224.64 h 22.969 v 11.378 h 5.333 v 9.102 h 2.418 v 2.844 h 2.062 v 4.196 h 3.058 v -2.418 h 12.16 l 4.693,-4.693 v -9.173 h 2.773 v -8.96 h 4.764 v 2.56 h 3.484 v -3.556 h 5.902 v 12.16 h 4.836 v 9.813 l 3.378,3.378 v 17.884 h 5.938 v 79.644 l 5.973,-34.667 68.16,20.693 v 54.613 h 19.733 v -70.72 h 8.853 v -5.333 l 11.2,-20.373 v -11.84 l 8.16,-8.16 h 1.333 v -13.173 h 1.493 v 13.333 l 8.053,8.053 h 2.72 v 11.04 l 11.627,21.44 h 2.027 v 3.307 h 5.333 v 22.187 l 21.76,8.96 v -62.827 h 11.733 v -26.56 c 0,0 -1.92,-12.8 12.8,-12.8 v -13.653 h 1.813 v 13.653 c 0,0 11.52,-1.493 11.52,12.8 v 24.107 l 8.427,-9.92 v -8 h 2.133 v -33.6 l 27.093,-62.293 v -17.707 h 2.24 v 17.707 l 23.04,59.84 v 23.147 h 3.84 V 192 h 42.276 v -28.16 h 12.373 v -25.956 h 1.778 V 134.4 h 8.604 v -4.409 h 1.564 v 4.338 h 10.382 V 70.827 L 1536.776,39.04 V 0 h 1.422 v 18.631 h 1.707 v 14.862 l 3.627,-5.902 v -6.684 c 0,0 -0.924,-4.551 6.116,-4.551 7.04,0 5.689,4.48 5.689,4.48 v 8.036 l 17.067,41.955 v 64.213 h 18.56 v 4.196 h 2.844 v 27.307 h 11.591 l 7.253,140.658 h 9.031 v -51.982 h 16.213 v -3.84 h 6.613 v -9.244 c 0,0 -4.942,-6.222 0,-11.164 l 4.231,-4.231 7.644,-36.658 h 6.755 l 3.769,6.329 h 2.062 v -42.098 h 15.076 v 210.062 h 4.978 v -24.036 h 38.684 v -22.757 l 4.551,-5.262 V 294.4 h 1.138 v 9.813 h 4.836 v -8.96 h 1.92 v 15.787 c 0,0 0.853,-3.698 2.916,-3.698 2.063,0 2.844,4.409 2.844,4.409 V 142.222 c 0,0 -2.276,-18.773 8.462,-35.413 0,0 1.529,-11.627 7.822,-17.92 V 80 c 0,0 1.707,-3.698 5.618,-3.698 3.911,0 5.333,2.844 5.333,2.844 v 8.818 l 3.556,5.12 V 78.649 h 3.058 v -18.56 h 2.062 v 41.884 c 0,0 9.173,16.356 10.24,27.876 v 152.249 h 5.262 v 81.635 h 4.907 V 339.626 H 1822.5 V 229.333 l 2.773,2.773 v 11.2 l 1.12,1.12 v 6.56 h 15.627 v 34.987 h 4.267 V 193.6 h 3.947 V 71.04 c 0,0 4.053,-19.947 11.84,-31.253 l -1.92,-2.347 V 0 h 1.92 v 18.56 h 3.093 v 14.4 l 4.267,-4.267 v -8.107 c 0,0 0.213,-3.84 5.653,-3.84 5.44,0 5.44,4.267 5.44,4.267 v 7.68 l 2.453,3.413 V 17.6 h 1.707 v 16.213 l 27.947,64.747 v 128.746 l 3.84,9.6 v 14.827 h 39.36 v 71.822 l 4.693,-28.302 V 65.565 h 16.071 v 41.244 l 4.053,-4.053 h 7.324 l 8.249,35.769 c 0,0 9.671,6.258 2.844,16.071 v 7.822 h 7.111 v 4.267 h 17.209 v 51.911 h 9.813 l 6.258,-141.084 h 10.382 V 50.773 h 3.129 v -6.116 h 88.178 v 4.409 h 3.271 V 74.95 h 10.098 v 28.018 h 42.667 v 59.307 c 0,0 3.84,-6.684 25.173,-6.684 v -13.653 h 2.844 v 13.084 c 0,0 13.227,-1.28 25.884,5.404 v 37.12 h 5.262 v -3.982 h 7.396 v -25.742 c 0,0 3.271,-9.956 11.235,-9.956 v -13.938 h 3.698 v 15.36 c 0,0 11.022,4.551 11.022,11.022 v 24.676 h 15.146 v 4.658 h -2.418 v 85.653 h 6.969 v 5.12 h 3.555 v 13.369 h 2.987 v 17.351 l 11.378,-5.404 h 20.907 c 0,0 0.284,5.689 4.551,5.689 h 15.787 v 17.493 l 12.8,5.973 v -90.311 h 14.08 l 13.227,22.187 v -107.52 h 8.107 v -2.56 h 13.511 v 2.987 h 6.969 v 67.84 l 11.236,-18.631 h 14.507 v 47.36 l 13.369,23.467 2.276,-7.822 h 5.547 v -73.387 h 6.827 v -26.311 h 29.582 l 6.969,-6.969 V 144.64 h 14.222 v -7.253 h 8.96 v 9.956 h 2.56 V 138.81 H 2560 V 450 H 0 Z"
   id="path2"
   sodipodi:nodetypes="cccccccccccccccccccccccccccccccccccccccccccccccccccccccccccccccccccccccccccccccccccccccccccccccccccccccccccccccccccccccccccccccccccccccccccccccccccccccccccccsccccccccccccccccccsccccccccccccccccccccccccccccccccccccccccccccccccccccccccccccccccccccccccccccccccccccccccccccccccccccccccccccccscccccccccccccccccccccccccccccccccsccccccccccccccccsccccccccccccccccccccscccccscccccccccccccccccccccccccccccccccccscccccccccccccccccccccccccccccccccccccccccccccccccccccscccccccccccccsccccccccccccccccccccccccccccccccccc" />
</svg>
